<?xml version="1.0" encoding="utf-8"?>
<!-- Generator: Adobe Illustrator 27.5.0, SVG Export Plug-In . SVG Version: 6.00 Build 0)  -->
<svg version="1.1" id="background" xmlns="http://www.w3.org/2000/svg" xmlns:xlink="http://www.w3.org/1999/xlink" x="0px" y="0px"
	 viewBox="0 0 600 400" style="enable-background:new 0 0 600 400;" xml:space="preserve">
<g>
	<rect style="fill:#FFFFFF;" width="600" height="400"/>
	<g>
		<defs>
			<rect id="SVGID_1_" width="600" height="400"/>
		</defs>
		<clipPath id="SVGID_00000110468355057007777090000001041464328997992868_">
			<use xlink:href="#SVGID_1_"  style="overflow:visible;"/>
		</clipPath>
		<g style="clip-path:url(#SVGID_00000110468355057007777090000001041464328997992868_);">
			<path style="fill:#22B260;" d="M340.348,272.009c-1.58,0-3.16-0.052-4.742-0.157c-46.445-3.101-86.144-42.527-124.535-80.656
				c-32.338-32.118-62.883-62.454-92.929-64.459c-34.493-2.308-62.868,13.664-90.301,29.106
				c-23.717,13.351-46.128,25.96-69.704,24.388l0.066-0.998c23.299,1.564,45.564-10.985,69.147-24.261
				c27.559-15.513,56.06-31.547,90.857-29.232c30.419,2.03,61.093,32.495,93.567,64.747c38.261,38,77.824,77.292,123.896,80.368
				c32.712,2.176,65.011-19.017,102.438-43.562c29.573-19.395,63.094-41.377,100.975-53.349
				c43.432-13.727,86.209-12.288,130.774,4.401l-0.352,0.937c-44.345-16.606-86.907-18.042-130.122-4.384
				c-37.749,11.93-71.207,33.872-100.728,53.231C402.881,251.592,371.748,272.009,340.348,272.009z"/>
			<path style="fill:#22B360;" d="M339.706,269.932c-1.268,0-2.536-0.033-3.807-0.104c-46.127-2.604-85.967-40.855-124.494-77.847
				c-1.865-1.791-3.726-3.577-5.581-5.354c-29.061-27.848-59.109-56.644-87.802-58.941c-28.239-2.269-52.454,7.856-74.405,19.134
				c-6.11,3.142-12.139,6.476-17.968,9.7c-22.903,12.668-44.548,24.632-67.302,23.062l0.068-0.998
				c22.476,1.555,43.979-10.344,66.75-22.938c5.835-3.228,11.87-6.565,17.994-9.715c22.083-11.345,46.449-21.526,74.942-19.241
				c29.047,2.325,59.227,31.247,88.413,59.216c1.855,1.776,3.717,3.563,5.582,5.354c38.396,36.866,78.101,74.987,123.857,77.57
				c23.535,1.278,46.805-9.852,66.491-20.914c11.655-6.55,23.367-13.964,35.768-21.813c61.284-38.793,130.746-82.762,231.35-45.792
				l-0.346,0.938c-100.139-36.8-169.381,7.029-230.469,45.7c-12.412,7.856-24.135,15.276-35.813,21.839
				C384.183,259.327,362.161,269.932,339.706,269.932z"/>
			<path style="fill:#23B45F;" d="M339.225,267.869c-1.011,0-2.02-0.021-3.032-0.063c-45.855-2.111-85.87-39.247-124.566-75.161
				c-1.937-1.797-3.87-3.591-5.8-5.376l-1.623-1.506c-30.26-28.056-58.841-54.557-86.299-57.125
				c-28.052-2.636-52.175,6.981-74.063,17.768c-6.885,3.4-13.633,7.075-20.158,10.629c-22.164,12.071-43.106,23.482-65.126,21.9
				l0.07-0.997c21.752,1.553,42.545-9.782,64.577-21.782c6.534-3.559,13.291-7.239,20.194-10.647
				c22.02-10.852,46.291-20.527,74.599-17.867c27.796,2.6,56.497,29.213,86.885,57.388l1.623,1.505c1.93,1.786,3.863,3.58,5.8,5.377
				c38.565,35.792,78.443,72.8,123.932,74.894c22.889,0.998,45.476-9.486,66.478-20.938c11.643-6.35,23.206-13.407,35.449-20.879
				c60.849-37.139,129.814-79.231,231.103-42.713l-0.34,0.94c-100.83-36.354-169.585,5.605-230.241,42.626
				c-12.254,7.479-23.828,14.542-35.492,20.902C382.989,257.763,361.309,267.869,339.225,267.869z"/>
			<path style="fill:#23B55F;" d="M338.894,265.821c-0.804,0-1.604-0.013-2.409-0.039c-45.528-1.504-85.666-37.516-124.481-72.341
				c-2.06-1.848-4.117-3.694-6.173-5.533l-4.9-4.399c-30.515-27.421-56.869-51.103-83.145-53.923
				c-27.889-3.011-51.912,6.104-73.718,16.403c-7.599,3.599-14.996,7.573-22.15,11.417c-21.493,11.548-41.801,22.459-63.15,20.879
				l0.074-0.997c21.069,1.553,41.242-9.286,62.603-20.764c7.165-3.849,14.574-7.83,22.196-11.44
				c21.938-10.361,46.114-19.531,74.253-16.493c26.596,2.854,53.062,26.636,83.706,54.173l4.898,4.398
				c2.056,1.838,4.113,3.685,6.174,5.533c38.683,34.706,78.682,70.593,123.847,72.085c20.998,0.701,41.735-7.879,66.465-20.963
				c11.567-6.119,22.929-12.798,34.958-19.868c30.959-18.198,62.973-37.015,100.279-46.938
				c42.363-11.268,85.134-8.903,130.751,7.229l-0.334,0.943c-45.42-16.063-87.995-18.418-130.16-7.205
				c-37.175,9.887-69.128,28.669-100.029,46.833c-12.039,7.076-23.409,13.76-34.998,19.891
				C379.522,257.362,359.262,265.82,338.894,265.821z"/>
			<path style="fill:#24B55E;" d="M338.386,263.776c-0.535,0-1.071-0.006-1.607-0.018c-45.322-0.982-85.681-35.972-124.711-69.81
				c-2.078-1.802-4.156-3.604-6.235-5.4c-2.727-2.365-5.423-4.717-8.091-7.044c-29.471-25.711-54.923-47.917-80.074-50.969
				c-16.401-2.005-36.64-1.569-73.374,15.037c-8.263,3.749-16.252,7.99-23.979,12.092c-20.876,11.083-40.593,21.554-61.337,19.973
				l0.076-0.997c20.45,1.559,40.048-8.846,60.792-19.859c7.739-4.109,15.743-8.357,24.034-12.119
				c21.842-9.875,45.906-18.544,73.908-15.119c25.456,3.089,51.016,25.388,80.611,51.208c2.667,2.327,5.362,4.678,8.087,7.042
				c2.079,1.796,4.157,3.599,6.235,5.4c38.896,33.722,79.117,68.592,124.078,69.566c20.438,0.455,40.563-7.703,66.449-20.986
				c11.421-5.861,22.518-12.136,34.267-18.779c31.001-17.53,63.057-35.656,100.217-44.931c42.043-10.494,84.874-7.828,130.941,8.147
				l-0.328,0.944c-45.879-15.91-88.525-18.564-130.371-8.122c-37.028,9.243-69.024,27.335-99.967,44.832
				c-11.24,6.356-22.863,12.929-34.302,18.798C378.356,255.67,358.463,263.776,338.386,263.776z"/>
			<path style="fill:#24B65E;" d="M337.8,261.739c-0.243,0-0.485-0.001-0.729-0.004c-45.168-0.46-83.987-32.976-125.086-67.4
				c-2.048-1.716-4.098-3.433-6.149-5.146c-3.798-3.184-7.529-6.35-11.201-9.466c-28.442-24.131-53.005-44.971-77.086-48.237
				c-16.33-2.233-36.481-2.122-73.031,13.671c-8.88,3.854-17.406,8.334-25.651,12.666c-20.312,10.671-39.503,20.753-59.679,19.167
				l0.078-0.997c19.889,1.564,38.955-8.452,59.136-19.055c8.262-4.34,16.805-8.829,25.719-12.698
				c36.773-15.89,57.088-15.995,73.563-13.745c24.37,3.306,49.036,24.233,77.598,48.466c3.671,3.115,7.401,6.279,11.196,9.461
				c2.052,1.714,4.102,3.431,6.15,5.147c40.957,34.307,79.644,66.711,124.453,67.167c0.238,0.002,0.48,0.004,0.718,0.004
				c21.682,0,43.458-9.938,65.718-21.015c11.187-5.567,22.45-11.688,33.344-17.606c62.698-34.068,127.528-69.294,231.517-33.943
				l-0.322,0.946c-103.568-35.21-168.207-0.09-230.717,33.875c-10.901,5.923-22.173,12.047-33.376,17.622
				C381.594,251.752,359.695,261.739,337.8,261.739z"/>
			<path style="fill:#24B75D;" d="M336.346,259.718c-44.215,0.001-82.705-31.178-123.439-64.172
				c-2.352-1.904-4.707-3.812-7.067-5.717c-4.86-3.94-9.629-7.881-14.241-11.692c-27.426-22.665-51.111-42.239-74.168-45.702
				c-26.016-3.94-47.872,2.072-72.688,12.306c-9.459,3.922-18.477,8.618-27.198,13.158c-19.789,10.302-38.479,20.031-58.146,18.443
				l0.08-0.997c19.377,1.572,37.946-8.099,57.604-18.333c8.74-4.55,17.778-9.255,27.278-13.195
				c24.972-10.298,46.98-16.342,73.219-12.37c23.33,3.503,47.115,23.16,74.655,45.919c4.61,3.81,9.377,7.75,14.232,11.686
				c2.361,1.905,4.717,3.813,7.068,5.718c40.905,33.13,79.521,64.458,123.823,63.943c21.603-0.235,42.864-9.666,66.425-21.035
				c10.85-5.235,21.676-10.882,32.146-16.342c31.22-16.282,63.502-33.119,100.453-41.157c41.442-9.015,84.521-5.757,131.699,9.962
				l-0.316,0.949c-47.002-15.66-89.906-18.909-131.171-9.934c-36.82,8.009-69.042,24.814-100.202,41.066
				c-10.478,5.464-21.311,11.114-32.173,16.355c-23.672,11.422-45.04,20.896-66.849,21.135
				C337.029,259.716,336.686,259.718,336.346,259.718z"/>
			<path style="fill:#25B85D;" d="M336.396,257.696c-44.497,0.001-83.634-30.574-125.046-62.928l-5.509-4.3
				c-5.92-4.64-11.665-9.271-17.221-13.751c-26.42-21.298-49.237-39.693-71.31-43.334c-25.956-4.315-47.692,1.251-72.345,10.94
				c-10.003,3.958-19.473,8.849-28.631,13.578c-19.307,9.97-37.558,19.39-56.728,17.791l0.083-0.996
				c18.89,1.574,37.011-7.779,56.186-17.683c9.18-4.741,18.672-9.644,28.724-13.62c24.808-9.751,46.695-15.353,72.874-10.996
				c22.332,3.684,45.244,22.155,71.773,43.542c5.554,4.477,11.297,9.106,17.21,13.741l5.508,4.3
				c41.271,32.243,80.28,62.716,124.434,62.716c0.416,0,0.828-0.002,1.245-0.008c21.991-0.285,44.571-10.847,66.407-21.06
				c10.388-4.858,20.675-10.003,30.623-14.979c65.104-32.561,126.601-63.314,233.109-28.543l-0.311,0.951
				c-106.119-34.645-167.436-3.979-232.352,28.487c-9.954,4.979-20.247,10.126-30.646,14.99
				c-21.933,10.258-44.611,20.865-66.817,21.153C337.237,257.694,336.816,257.696,336.396,257.696z"/>
			<path style="fill:#25B95D;" d="M335.529,255.694c-44.051,0.002-83.283-29.591-124.778-60.888l-4.906-3.698
				c-6.978-5.286-13.67-10.557-20.142-15.653c-25.426-20.025-47.385-37.318-68.512-41.122c-25.915-4.707-47.527,0.423-72,9.574
				c-10.518,3.963-20.402,9.033-29.962,13.937c-18.856,9.671-36.659,18.81-55.412,17.2l0.086-0.996
				c18.45,1.578,36.144-7.49,54.87-17.094c9.584-4.916,19.495-9.999,30.066-13.982c24.629-9.209,46.384-14.369,72.53-9.623
				c21.371,3.848,43.421,21.213,68.952,41.321c6.468,5.094,13.156,10.361,20.125,15.641l4.905,3.698
				c42.111,31.761,81.877,61.735,126.574,60.657c21.033-0.52,41.546-9.819,65.297-20.587l1.096-0.496
				c9.78-4.434,19.404-9.045,28.712-13.505c64.997-31.144,126.387-60.563,234.457-26.003l-0.305,0.952
				c-49.157-15.719-91.292-19.451-132.604-11.743c-36.755,6.857-68.018,21.836-101.115,37.696
				c-9.313,4.462-18.942,9.076-28.732,13.514l-1.095,0.497c-23.851,10.813-44.449,20.151-65.685,20.676
				C337.144,255.685,336.334,255.694,335.529,255.694z"/>
			<path style="fill:#26BA5C;" d="M334.622,253.707c-43.666,0.003-83.047-28.671-124.681-58.98l-4.093-2.979
				c-8.038-5.884-15.648-11.748-23.008-17.418c-24.444-18.833-45.555-35.099-65.768-39.048c-25.903-5.108-47.381-0.414-71.657,8.208
				c-11.005,3.942-21.273,9.178-31.204,14.241c-18.437,9.4-35.849,18.287-54.184,16.664l0.088-0.996
				c18.048,1.589,35.338-7.227,53.642-16.559c9.958-5.078,20.256-10.328,31.322-14.292c24.434-8.677,46.063-13.398,72.186-8.248
				c20.444,3.995,41.642,20.326,66.186,39.237c7.354,5.667,14.96,11.527,22.986,17.403l4.092,2.978
				c42.637,31.04,82.943,60.367,127.679,58.724c20.114-0.734,39.69-9.355,62.358-19.339l4.02-1.769
				c8.996-3.95,17.812-7.994,26.336-11.905c67.824-31.12,126.402-57.993,236.27-23.589l-0.299,0.954
				c-109.502-34.287-167.915-7.488-235.554,23.543c-8.528,3.913-17.347,7.959-26.351,11.913l-4.02,1.768
				c-22.761,10.024-42.419,18.682-62.724,19.424C337.036,253.686,335.824,253.707,334.622,253.707z"/>
			<path style="fill:#26BA5C;" d="M333.472,251.74c-43.143,0.001-81.004-26.602-124.588-57.223l-3.032-2.13
				c-9.103-6.438-17.604-12.855-25.827-19.062c-23.471-17.716-43.742-33.016-63.071-37.095c-25.912-5.52-47.248-1.256-71.313,6.842
				c-11.468,3.898-22.091,9.287-32.363,14.499c-18.046,9.153-35.1,17.796-53.039,16.176l0.09-0.996
				c17.658,1.601,34.583-6.984,52.496-16.072c10.305-5.227,20.96-10.632,32.496-14.554c24.222-8.152,45.708-12.438,71.841-6.874
				c19.546,4.125,39.899,19.487,63.466,37.275c8.216,6.202,16.712,12.614,25.801,19.042l3.03,2.129
				c45.131,31.708,84.124,59.088,129.032,56.92c19.254-0.932,37.955-8.954,59.609-18.243c2.228-0.956,4.479-1.921,6.754-2.889
				c7.997-3.401,15.819-6.837,23.384-10.159c34.101-14.977,66.311-29.123,103.324-34.94c40.998-6.444,84.001-2.117,135.334,13.618
				l-0.293,0.956c-51.182-15.688-94.04-20.008-134.886-13.586c-36.886,5.797-69.038,19.918-103.078,34.868
				c-7.566,3.323-15.391,6.76-23.395,10.163c-2.274,0.967-4.523,1.933-6.75,2.888c-20.839,8.938-40.521,17.382-59.955,18.322
				C336.843,251.699,335.151,251.74,333.472,251.74z"/>
			<path style="fill:#26BB5B;" d="M332.434,249.786c-42.862,0.002-81.023-25.873-124.888-55.613l-1.69-1.146
				c-10.176-6.952-19.544-13.889-28.604-20.597c-22.508-16.665-41.946-31.058-60.417-35.25c-25.943-5.945-47.132-2.11-70.97,5.477
				c-11.909,3.833-22.861,9.364-33.453,14.714C-5.266,166.3-21.974,174.734-39.551,173.1l0.092-0.996
				c17.311,1.614,33.876-6.763,51.421-15.625c10.625-5.367,21.613-10.917,33.599-14.774c23.995-7.637,45.334-11.496,71.496-5.499
				c18.676,4.239,38.192,18.689,60.79,35.421c9.052,6.703,18.412,13.633,28.571,20.574l1.688,1.145
				c45.883,31.107,85.494,57.966,130.665,55.25c18.454-1.113,37.205-8.969,57.057-17.286c3.053-1.278,6.147-2.575,9.292-3.869
				c6.741-2.775,13.342-5.552,19.725-8.235c71.148-29.919,127.347-53.551,241.754-19.232l-0.287,0.958
				c-114.065-34.216-170.116-10.646-241.079,19.196c-6.385,2.685-12.987,5.461-19.731,8.237c-3.143,1.294-6.235,2.59-9.286,3.868
				c-19.933,8.351-38.76,16.237-57.383,17.361C336.688,249.723,334.553,249.786,332.434,249.786z"/>
			<path style="fill:#27BC5B;" d="M331.345,247.851c-42.666,0.002-81.209-25.217-125.445-54.158
				c-11.298-7.453-21.505-14.877-31.377-22.058c-21.554-15.677-40.169-29.216-57.808-33.506c-25.99-6.383-47.03-2.972-70.625,4.111
				c-12.331,3.748-23.589,9.414-34.476,14.893c-17.333,8.724-33.697,16.966-50.956,15.318l0.096-0.995
				c16.969,1.615,33.212-6.559,50.411-15.216c10.924-5.499,22.221-11.184,34.636-14.958c23.753-7.131,44.942-10.562,71.151-4.125
				c17.83,4.337,36.519,17.93,58.159,33.669c9.862,7.173,20.06,14.591,31.297,22.004c46.795,30.614,87.168,57.045,132.646,53.742
				c17.691-1.28,35.636-8.638,54.634-16.428c3.828-1.569,7.724-3.167,11.7-4.752c5.169-2.059,10.219-4.095,15.175-6.092
				c74.583-30.056,128.47-51.773,245.74-17.361l-0.281,0.959c-116.938-34.313-170.689-12.651-245.085,17.33
				c-4.957,1.998-10.008,4.033-15.178,6.094c-3.975,1.583-7.867,3.179-11.691,4.747c-19.074,7.821-37.091,15.209-54.941,16.501
				C336.518,247.759,333.921,247.851,331.345,247.851z"/>
			<path style="fill:#27BD5A;" d="M330.252,245.932c-42.969,0-82.597-25.127-124.391-51.627
				c-12.518-7.937-23.66-15.909-34.436-23.619c-20.447-14.63-38.106-27.264-54.83-31.608c-26.058-6.836-46.942-3.846-70.281,2.745
				c-12.737,3.646-24.279,9.439-35.44,15.041c-17.006,8.535-33.069,16.6-50.005,14.939l0.098-0.995
				c16.641,1.626,32.585-6.369,49.458-14.838c11.203-5.622,22.788-11.436,35.616-15.108c23.496-6.637,44.526-9.646,70.808-2.751
				c16.901,4.39,34.63,17.075,55.158,31.762c10.765,7.702,21.896,15.666,34.39,23.588c44.603,28.28,86.736,54.989,132.938,51.09
				c16.973-1.435,34.155-8.347,52.347-15.664c4.523-1.82,9.201-3.701,13.974-5.541c3.212-1.238,6.375-2.462,9.494-3.669
				c78.412-30.343,130.214-50.39,250.856-15.771l-0.275,0.961c-120.317-34.523-171.996-14.527-250.22,15.742
				c-3.12,1.207-6.283,2.432-9.496,3.67c-4.766,1.836-9.439,3.717-13.959,5.535c-18.264,7.347-35.515,14.285-52.637,15.732
				C336.346,245.806,333.29,245.932,330.252,245.932z"/>
			<path style="fill:#27BE5A;" d="M328.445,244.068c-39.121,0.001-74.678-19.82-122.58-49.125
				c-13.624-8.334-26.086-17.12-37.082-24.871c-19.516-13.757-36.37-25.639-52.307-30.048c-26.145-7.305-46.866-4.732-69.938,1.38
				c-13.125,3.529-24.933,9.441-36.351,15.158c-16.699,8.362-32.479,16.255-49.109,14.591l0.1-0.995
				c16.343,1.647,31.995-6.194,48.563-14.49c11.463-5.739,23.315-11.674,36.54-15.23c23.229-6.154,44.101-8.743,70.464-1.377
				c16.103,4.455,33.022,16.383,52.614,30.194c10.983,7.742,23.432,16.517,37.027,24.834c52.284,31.985,89.802,52.649,133.23,48.436
				c16.289-1.575,32.751-8.085,50.181-14.978c5.208-2.06,10.593-4.189,16.124-6.251l2.365-0.881
				c42.151-15.712,75.444-28.121,113.673-32.19c40.526-4.314,84.865,1.128,143.75,17.646l-0.27,0.963
				c-58.759-16.482-102.979-21.915-143.375-17.614c-38.103,4.056-71.344,16.446-113.429,32.132l-2.365,0.882
				c-5.522,2.058-10.902,4.186-16.106,6.243c-17.496,6.919-34.022,13.454-50.452,15.044
				C335.917,243.89,332.163,244.068,328.445,244.068z"/>
			<path style="fill:#28BF5A;" d="M327.298,242.189c-39.146,0.003-75.634-19.586-121.43-46.607
				c-14.742-8.698-27.993-17.915-39.685-26.046c-18.596-12.935-34.656-24.104-49.826-28.563
				c-22.763-6.755-42.272-6.751-69.594,0.014c-13.499,3.398-25.554,9.423-37.211,15.25c-16.409,8.202-31.906,15.945-48.264,14.269
				l0.102-0.995c16.065,1.648,31.438-6.033,47.715-14.168c11.705-5.851,23.809-11.9,37.416-15.326
				c27.513-6.813,47.171-6.812,70.119-0.002c15.324,4.504,31.446,15.717,50.114,28.701c11.677,8.122,24.911,17.327,39.621,26.006
				c50.54,29.82,89.692,50.566,133.522,45.783c15.634-1.705,31.406-7.849,48.104-14.353c5.86-2.283,11.92-4.644,18.187-6.9
				c90.161-32.472,135.247-45.395,259.224-11.413l-0.264,0.965c-123.683-33.902-168.665-21.008-258.622,11.39
				c-6.254,2.252-12.308,4.61-18.162,6.891c-16.762,6.529-32.594,12.696-48.358,14.415
				C335.732,241.964,331.496,242.189,327.298,242.189z"/>
			<path style="fill:#28BF59;" d="M325.604,240.365c-38.825,0.001-74.808-18.587-119.731-44.145
				c-15.877-9.032-29.891-18.662-42.255-27.158c-17.686-12.153-32.959-22.649-47.379-27.141
				c-22.865-7.192-42.281-7.571-69.249-1.352c-13.861,3.254-26.147,9.388-38.029,15.319c-16.134,8.054-31.365,15.664-47.461,13.969
				l0.105-0.994c15.794,1.661,30.909-5.881,46.908-13.869c11.934-5.958,24.272-12.118,38.25-15.399
				c27.163-6.263,46.725-5.877,69.774,1.372c14.563,4.536,29.895,15.072,47.646,27.271c12.348,8.485,26.343,18.102,42.183,27.113
				c50.362,28.652,89.438,48.514,133.813,43.13c15.006-1.822,30.118-7.632,46.119-13.783c6.48-2.491,13.183-5.067,20.158-7.494
				c86.347-30.034,129.946-41.86,258.661-7.399l-0.258,0.967c-128.433-34.387-171.929-22.588-258.075,7.378
				c-6.96,2.421-13.654,4.994-20.128,7.482c-16.06,6.174-31.229,12.005-46.356,13.842
				C335.342,240.076,330.449,240.365,325.604,240.365z"/>
			<path style="fill:#29C059;" d="M324.243,238.538c-38.909,0.003-75.605-18.232-118.368-41.679
				c-17.027-9.336-31.774-19.363-44.786-28.21c-16.786-11.414-31.283-21.271-44.971-25.779c-23.081-7.678-42.397-8.44-68.903-2.718
				c-14.254,3.077-26.784,9.333-38.902,15.384c-15.839,7.909-30.791,15.38-46.604,13.674l0.107-0.994
				c15.509,1.672,30.346-5.733,46.05-13.574c12.173-6.078,24.761-12.363,39.138-15.467c26.695-5.762,46.161-4.993,69.429,2.746
				c13.819,4.552,28.37,14.446,45.219,25.902c12.993,8.834,27.719,18.847,44.704,28.16c48.532,26.609,89.22,46.485,134.105,40.477
				c14.396-1.928,28.874-7.431,44.201-13.256c7.076-2.689,14.394-5.471,22.062-8.045c46.447-15.597,78.567-24.274,115.232-25.463
				c36.913-1.194,78.3,5.199,142.864,22.077l-0.252,0.967c-64.468-16.851-105.786-23.243-142.58-22.044
				c-36.541,1.186-68.59,9.845-114.946,25.411c-7.649,2.568-14.957,5.347-22.024,8.032c-15.383,5.847-29.912,11.369-44.424,13.312
				C335.089,238.187,329.641,238.538,324.243,238.538z"/>
			<path style="fill:#29C158;" d="M322.255,236.784c-38.539,0.001-74.572-17.205-116.376-39.287
				c-18.197-9.611-33.65-20.023-47.285-29.209c-15.896-10.711-29.625-19.961-42.595-24.471c-23.205-8.146-42.426-9.291-68.56-4.083
				c-14.592,2.909-27.324,9.264-39.638,15.411c-15.592,7.782-30.315,15.132-45.882,13.417l0.109-0.994
				c15.274,1.685,29.871-5.603,45.325-13.317c12.373-6.176,25.166-12.562,39.89-15.497c26.323-5.247,45.692-4.092,69.085,4.12
				c13.091,4.551,26.869,13.835,42.824,24.585c13.613,9.172,29.043,19.568,47.192,29.155
				c48.295,25.509,88.856,44.492,134.396,37.822c13.811-2.022,27.677-7.242,42.356-12.769c7.646-2.878,15.553-5.854,23.892-8.556
				c44.404-14.384,77.51-22.752,115.324-22.957c0.485-0.003,0.977-0.004,1.465-0.004c34.72,0,74.409,6.664,140.746,23.586
				l-0.248,0.969c-67.18-17.138-107.019-23.774-141.958-23.551c-37.685,0.204-70.71,8.554-115.021,22.908
				c-8.317,2.694-16.213,5.667-23.849,8.541c-14.731,5.545-28.646,10.783-42.563,12.822
				C334.592,236.348,328.39,236.784,322.255,236.784z"/>
			<path style="fill:#29C258;" d="M320.264,235.071c-34.474,0.001-68.438-13.567-114.382-36.935
				c-19.385-9.859-35.515-20.645-49.746-30.161c-15.019-10.042-27.989-18.716-40.257-23.209
				c-23.339-8.634-42.465-10.162-68.215-5.45c-14.919,2.729-27.841,9.181-40.338,15.42c-15.355,7.666-29.859,14.904-45.196,13.177
				l0.111-0.994c15.05,1.698,29.42-5.479,44.638-13.077c12.56-6.271,25.547-12.754,40.605-15.509
				c25.947-4.747,45.219-3.207,68.74,5.495c12.378,4.534,25.395,13.238,40.467,23.316c14.208,9.501,30.313,20.269,49.644,30.101
				c54.975,27.961,92.719,41.846,134.689,35.168c13.239-2.106,26.511-7.063,40.562-12.311c8.196-3.062,16.673-6.228,25.671-9.038
				c90.874-28.379,126.896-27.729,256.972,4.64l-0.242,0.971c-129.839-32.311-165.789-32.965-256.431-4.655
				c-8.973,2.802-17.436,5.963-25.62,9.02c-14.1,5.266-27.416,10.239-40.755,12.362
				C334.123,234.524,327.181,235.071,320.264,235.071z"/>
			<path style="fill:#2AC357;" d="M317.973,233.408c-34.044,0-67.434-12.775-112.087-34.634
				c-20.595-10.082-37.374-21.233-52.178-31.073c-14.15-9.405-26.371-17.527-37.948-21.989
				c-23.784-9.254-42.179-11.101-67.871-6.814c-15.235,2.542-28.336,9.085-41.006,15.414c-15.131,7.558-29.426,14.696-44.544,12.953
				l0.115-0.993c14.821,1.705,28.987-5.364,43.981-12.854c12.736-6.361,25.905-12.939,41.289-15.506
				c25.887-4.32,44.426-2.458,68.396,6.869c11.678,4.5,23.941,12.651,38.141,22.088c14.778,9.822,31.528,20.955,52.063,31.007
				c54.634,26.744,92.324,39.846,134.979,32.515c12.683-2.181,25.375-6.892,38.813-11.879c8.73-3.24,17.758-6.591,27.405-9.493
				c94.936-28.564,128.696-22.336,256.409,8.651l-0.236,0.973c-127.503-30.937-161.205-37.154-255.884-8.667
				c-9.618,2.894-18.63,6.238-27.346,9.474c-13.483,5.004-26.219,9.731-38.992,11.928
				C333.513,232.745,325.726,233.408,317.973,233.408z"/>
			<path style="fill:#2AC457;" d="M316.072,231.724c-33.996,0.002-67.64-12.277-110.184-32.311
				c-21.825-10.278-39.224-21.79-54.574-31.947c-13.294-8.796-24.774-16.393-35.674-20.806c-23.93-9.78-42.23-11.997-67.527-8.181
				c-15.544,2.346-28.812,8.979-41.644,15.394c-14.917,7.458-29.012,14.502-43.92,12.743l0.117-0.993
				c14.615,1.72,28.577-5.255,43.355-12.644c12.901-6.45,26.241-13.12,41.942-15.489c25.493-3.846,43.937-1.612,68.053,8.244
				c10.99,4.45,22.51,12.072,35.849,20.898c15.322,10.138,32.688,21.629,54.448,31.876c52.988,24.951,92.11,37.84,135.272,29.861
				c12.137-2.243,24.267-6.725,37.108-11.469c9.247-3.417,18.809-6.949,29.096-9.929c91.176-26.406,125.486-18.266,239.17,8.714
				c5.375,1.275,10.928,2.593,16.675,3.952l-0.23,0.973c-5.747-1.358-11.301-2.677-16.675-3.952
				c-113.488-26.933-147.737-35.061-238.662-8.726c-10.251,2.969-19.796,6.495-29.026,9.905
				c-12.884,4.76-25.052,9.256-37.273,11.514C333.088,230.956,324.565,231.723,316.072,231.724z"/>
			<path style="fill:#2BC557;" d="M313.425,230.162c-33.459,0-66.365-11.476-107.532-30.112
				c-23.079-10.448-41.066-22.316-56.938-32.788c-12.449-8.214-23.2-15.308-33.435-19.655
				c-24.082-10.324-42.291-12.911-67.182-9.546c-15.845,2.142-29.271,8.862-42.256,15.361c-14.71,7.364-28.609,14.317-43.323,12.546
				l0.119-0.993c14.427,1.738,28.184-5.153,42.757-12.447c13.057-6.536,26.559-13.294,42.568-15.458
				c25.094-3.39,43.443-0.785,67.709,9.618c10.316,4.382,21.103,11.499,33.593,19.74c15.84,10.451,33.793,22.296,56.799,32.711
				c52.592,23.809,91.632,35.893,135.563,27.208c11.602-2.295,23.18-6.56,35.438-11.074c9.751-3.592,19.834-7.306,30.752-10.347
				c85.03-23.687,117.118-16.057,212.371,6.592c12.768,3.036,27.239,6.477,42.911,10.086l-0.225,0.975
				c-15.676-3.61-30.148-7.052-42.918-10.088c-95.065-22.604-127.089-30.219-211.872-6.602c-10.879,3.03-20.941,6.737-30.674,10.322
				c-12.296,4.529-23.91,8.807-35.59,11.116C332.341,229.25,322.86,230.162,313.425,230.162z"/>
			<path style="fill:#2BC556;" d="M311.149,228.573c-33.347,0.001-66.259-10.925-105.254-27.886
				c-24.355-10.594-42.901-22.817-59.265-33.601c-11.616-7.656-21.649-14.268-31.229-18.532
				c-21.057-9.458-38.744-14.275-66.838-10.912c-16.139,1.931-29.714,8.736-42.842,15.317c-14.514,7.275-28.229,14.148-42.751,12.36
				l0.122-0.992c14.223,1.746,27.806-5.056,42.181-12.262c13.205-6.62,26.859-13.464,43.171-15.416
				c28.325-3.386,46.15,1.465,67.365,10.992c9.654,4.296,19.719,10.93,31.372,18.61c16.328,10.762,34.836,22.96,59.112,33.519
				c68.592,29.833,102.836,31.513,135.855,24.554c11.075-2.335,22.11-6.394,33.794-10.69c10.244-3.769,20.836-7.664,32.382-10.755
				c80.11-21.444,113.068-13.403,192.691,6.027c17.935,4.376,38.263,9.337,62.026,14.664l-0.219,0.977
				c-23.773-5.33-44.105-10.292-62.045-14.669c-79.447-19.387-112.33-27.412-192.196-6.032
				c-11.501,3.078-22.071,6.966-32.294,10.726c-11.719,4.311-22.787,8.382-33.933,10.731
				C331.788,227.53,321.445,228.572,311.149,228.573z"/>
			<path style="fill:#2BC656;" d="M308.118,227.134c-32.665,0.001-64.666-10.125-102.219-25.809
				c-25.657-10.715-45.563-23.842-61.557-34.39c-10.798-7.121-20.124-13.271-29.062-17.434
				c-21.189-9.959-38.869-15.16-66.493-12.277c-16.424,1.713-30.14,8.601-43.404,15.261c-14.326,7.194-27.858,13.987-42.204,12.187
				l0.125-0.992c14.044,1.764,27.444-4.964,41.63-12.088c13.345-6.701,27.144-13.63,43.75-15.362
				c27.862-2.905,45.674,2.333,67.021,12.366c9.003,4.194,18.357,10.362,29.188,17.505c16.791,11.073,35.821,23.624,61.392,34.302
				c50.414,21.054,90.772,32.061,136.146,21.899c10.553-2.363,21.054-6.226,32.171-10.315c10.727-3.945,21.818-8.025,33.99-11.153
				c76.193-19.58,108.081-11.445,177.946,6.384c21.48,5.48,45.826,11.692,76.208,18.32l-0.213,0.977
				c-30.399-6.631-54.754-12.846-76.242-18.328c-69.695-17.784-101.504-25.902-177.451-6.384
				c-12.122,3.115-23.189,7.187-33.893,11.123c-11.149,4.102-21.681,7.975-32.298,10.354
				C330.888,225.912,319.461,227.134,308.118,227.134z"/>
			<path style="fill:#2CC755;" d="M662.243,228.481c-35.852-7.604-63.003-14.947-86.959-21.426
				c-62.153-16.81-93.354-25.247-166.187-7.298c-12.741,3.14-24.297,7.397-35.473,11.516c-10.587,3.9-20.587,7.585-30.682,9.979
				c-40.706,9.656-77.849,4.428-137.041-19.291c-26.983-10.812-47.403-24.311-63.812-35.158
				c-9.992-6.606-18.622-12.311-26.929-16.356c-21.833-10.727-38.839-16.078-66.149-13.643
				c-16.704,1.489-30.553,8.457-43.945,15.196c-14.144,7.116-27.502,13.839-41.678,12.022l0.127-0.992
				c13.87,1.778,27.099-4.877,41.102-11.923c13.477-6.781,27.411-13.792,44.307-15.299c27.4-2.44,45.198,3.188,66.677,13.741
				c8.363,4.073,17.019,9.795,27.041,16.42c16.37,10.822,36.743,24.29,63.631,35.064c58.979,23.632,95.956,28.849,136.439,19.246
				c10.036-2.381,20.008-6.056,30.566-9.945c11.201-4.127,22.784-8.395,35.579-11.548c73.083-18.012,104.364-9.552,166.688,7.304
				c23.942,6.475,51.08,13.814,86.904,21.412L662.243,228.481z"/>
			<path style="fill:#2CC855;" d="M661.952,230.449c-40.367-8.319-70.75-17.105-95.163-24.166
				c-56.141-16.236-87.065-25.179-157.435-8.569c-13.358,3.153-25.396,7.603-37.036,11.905c-10.03,3.707-19.506,7.209-29.082,9.609
				c-40.961,10.261-79.466,5.601-137.331-16.629c-28.334-10.885-49.233-24.76-66.026-35.909
				c-9.203-6.11-17.151-11.387-24.837-15.296c-21.969-11.271-38.966-17.002-65.804-15.009c-16.979,1.26-30.952,8.307-44.466,15.122
				c-13.971,7.045-27.169,13.701-41.172,11.867l0.129-0.991c13.712,1.79,26.765-4.795,40.593-11.769
				c13.601-6.859,27.665-13.951,44.842-15.226c27.073-2.008,44.204,3.762,66.333,15.115c7.735,3.935,15.706,9.227,24.935,15.354
				c16.753,11.122,37.602,24.963,65.833,35.809c57.653,22.147,95.99,26.803,136.729,16.592c9.523-2.386,18.973-5.879,28.978-9.577
				c11.669-4.313,23.735-8.772,37.152-11.94c70.622-16.669,101.638-7.702,157.943,8.582c24.396,7.056,54.758,15.836,95.086,24.148
				L661.952,230.449z"/>
			<path style="fill:#2DC954;" d="M661.662,232.417c-44.14-8.833-75.958-18.725-101.524-26.673
				c-51.199-15.917-82.104-25.524-150.526-10.074c-13.98,3.157-26.494,7.804-38.595,12.298c-9.477,3.52-18.428,6.844-27.485,9.235
				c-41.767,11.027-80.353,7.109-137.623-13.967c-29.71-10.933-51.053-25.19-68.201-36.646c-8.429-5.631-15.708-10.494-22.784-14.25
				C92.326,140.245,76,134.394,49.463,135.967c-17.247,1.025-31.339,8.149-44.967,15.039c-13.802,6.977-26.83,13.566-40.687,11.721
				l0.133-0.991c13.533,1.804,26.441-4.716,40.103-11.623c13.08-6.612,27.905-14.107,45.359-15.144
				c26.764-1.594,43.227,4.305,65.989,16.49c7.119,3.779,14.418,8.655,22.869,14.301c17.104,11.426,38.392,25.646,67.991,36.54
				c57.061,20.998,95.479,24.906,137.021,13.938c9.011-2.38,17.939-5.695,27.393-9.206c12.132-4.505,24.678-9.164,38.723-12.336
				c68.685-15.511,99.686-5.873,151.044,10.095c25.545,7.941,57.335,17.824,101.423,26.647L661.662,232.417z"/>
			<path style="fill:#2DCA54;" d="M661.37,234.386c-47.313-9.189-80.131-20.185-106.499-29.021
				c-47.034-15.759-78.105-26.171-145.002-11.739c-14.607,3.151-27.593,8.004-40.15,12.696c-8.925,3.335-17.354,6.485-25.895,8.855
				c-42.586,11.821-81.254,8.652-137.912-11.304c-31.113-10.958-52.861-25.605-70.337-37.374
				c-7.671-5.167-14.296-9.628-20.772-13.213c-22.728-12.683-39.051-18.908-65.113-17.739c-17.512,0.785-31.716,7.985-45.453,14.948
				c-13.64,6.915-26.524,13.446-40.216,11.583l0.135-0.991c13.383,1.824,26.132-4.642,39.629-11.483
				c13.188-6.685,28.134-14.261,45.86-15.055c28.848-1.29,46.091,6.952,65.645,17.864c6.513,3.604,13.475,8.293,20.845,13.257
				c17.429,11.737,39.118,26.345,70.11,37.26c56.445,19.882,94.946,23.046,137.313,11.284c8.499-2.359,16.908-5.502,25.812-8.829
				c12.592-4.706,25.611-9.571,40.29-12.737c67.164-14.49,98.339-4.042,145.53,11.769c26.341,8.826,59.123,19.811,106.373,28.986
				L661.37,234.386z"/>
			<path style="fill:#2DCA53;" d="M661.08,236.353c-50.012-9.417-83.51-21.523-110.427-31.251
				c-45.056-16.285-74.823-27.042-140.527-13.52c-15.237,3.136-28.69,8.202-41.7,13.102c-8.375,3.153-16.284,6.132-24.309,8.47
				c-43.424,12.646-82.173,10.225-138.202-8.643c-32.54-10.958-54.654-26.003-72.424-38.092c-6.644-4.52-12.92-8.79-18.808-12.185
				c-20.174-11.727-36.64-19.944-64.769-19.105c-17.771,0.541-32.081,7.815-45.92,14.85c-13.484,6.854-26.222,13.332-39.765,11.451
				l0.137-0.99c13.237,1.834,25.834-4.571,39.175-11.353c13.288-6.755,28.349-14.411,46.342-14.958
				c28.393-0.864,44.984,7.429,65.301,19.239c5.919,3.413,12.209,7.692,18.869,12.224c17.719,12.055,39.771,27.057,72.18,37.972
				c55.815,18.795,94.396,21.216,137.604,8.629c7.987-2.326,15.879-5.298,24.235-8.444c13.046-4.914,26.536-9.994,41.852-13.146
				c65.981-13.58,95.853-2.783,141.068,13.559c26.883,9.715,60.339,21.807,110.272,31.209L661.08,236.353z"/>
			<path style="fill:#2ECB53;" d="M660.789,238.321c-52.32-9.546-86.262-22.771-113.534-33.397
				c-41.846-16.304-72.079-28.087-136.872-15.386c-15.878,3.112-29.799,8.403-43.261,13.521c-7.821,2.973-15.208,5.78-22.711,8.069
				c-44.285,13.51-83.115,11.833-138.493-5.98c-33.992-10.933-56.433-26.388-74.465-38.807c-5.954-4.1-11.578-7.973-16.889-11.162
				c-20.859-12.621-36.577-20.881-64.426-20.47c-18.002,0.326-33.05,7.989-46.325,14.749c-13.349,6.798-25.954,13.22-39.374,11.323
				l0.141-0.99c13.104,1.852,25.575-4.5,38.779-11.224c13.372-6.81,28.528-14.527,46.764-14.858
				c28.068-0.414,43.952,7.903,64.958,20.613c5.336,3.204,10.972,7.085,16.939,11.195c17.978,12.381,40.352,27.79,74.204,38.679
				c55.163,17.743,93.824,19.419,137.896,5.975c7.47-2.279,14.842-5.081,22.646-8.047c13.501-5.132,27.462-10.439,43.425-13.567
				c65.075-12.754,95.424-0.93,137.426,15.436c27.233,10.61,61.125,23.816,113.352,33.345L660.789,238.321z"/>
			<path style="fill:#2ECC53;" d="M660.499,240.288c-54.314-9.593-88.52-23.943-116.005-35.475
				c-40.491-16.989-69.748-29.265-133.854-17.319c-16.525,3.079-30.911,8.606-44.823,13.952c-7.269,2.792-14.133,5.43-21.112,7.656
				c-37.665,12.014-75.68,16.049-138.783-3.318c-35.468-10.883-58.195-26.76-76.457-39.518c-5.284-3.691-10.274-7.177-15.02-10.141
				C92.86,142.54,77.773,134.29,50.386,134.29c-0.009,0-0.013,0-0.021,0c-18.254,0.073-33.401,7.812-46.767,14.639
				c-13.202,6.745-25.674,13.112-38.947,11.205l0.143-0.99c12.961,1.869,25.293-4.434,38.351-11.105
				c13.464-6.878,28.724-14.674,47.219-14.749c0.007,0,0.015,0,0.021,0c27.662,0,42.856,8.308,64.593,21.988
				c4.766,2.977,9.766,6.471,15.061,10.169c18.205,12.717,40.861,28.544,76.178,39.382c62.856,19.287,100.701,15.277,138.186,3.32
				c6.953-2.218,13.804-4.85,21.058-7.637c13.955-5.361,28.384-10.906,44.999-14.001c64.4-11.997,93.772,0.325,134.424,17.38
				c27.439,11.513,61.588,25.84,115.792,35.413L660.499,240.288z"/>
			<path style="fill:#2FCD52;" d="M660.208,242.256c-56.048-9.574-88.941-24.41-117.964-37.499
				c-39.325-17.735-67.736-30.551-131.347-19.307c-17.182,3.038-32.032,8.814-46.393,14.401c-6.713,2.611-13.052,5.077-19.506,7.226
				c-38.404,12.787-76.751,17.568-139.075-0.656c-36.964-10.808-59.936-27.121-78.394-40.228c-4.635-3.291-9.012-6.399-13.204-9.122
				c-21.611-14.14-36.251-22.825-63.736-23.201c-18.481-0.184-33.744,7.629-47.193,14.523c-13.06,6.694-25.4,13.019-38.536,11.091
				l0.145-0.989c12.826,1.876,25.022-4.373,37.936-10.992c13.393-6.865,28.554-14.637,47.007-14.637
				c0.219,0,0.435,0.001,0.654,0.003c29.173,0.399,45.438,11.041,64.271,23.363c4.208,2.733,8.594,5.848,13.237,9.145
				c18.396,13.064,41.293,29.323,78.096,40.084c62.073,18.15,100.251,13.394,138.478,0.666c6.431-2.141,12.759-4.603,19.459-7.209
				c14.406-5.604,29.304-11.399,46.582-14.454c63.906-11.298,92.441,1.569,131.932,19.38
				c28.968,13.064,61.799,27.871,117.721,37.424L660.208,242.256z"/>
			<path style="fill:#2FCE52;" d="M659.918,244.224c-57.566-9.502-90.477-25.426-119.512-39.476
				c-36.867-17.84-65.987-31.93-129.25-21.342c-17.854,2.988-33.17,9.03-47.981,14.873c-6.151,2.426-11.961,4.718-17.883,6.773
				c-40.113,13.92-77.417,19.112-139.363,2.007c-38.524-10.801-61.724-27.552-80.365-41.012c-3.976-2.871-7.731-5.583-11.356-8.03
				c-34.997-23.79-47.527-24.132-63.392-24.566c-18.743-0.45-34.079,7.442-47.606,14.401c-12.922,6.648-25.116,12.929-38.139,10.984
				l0.148-0.989c12.693,1.897,24.759-4.312,37.532-10.884c13.635-7.014,29.101-14.954,48.09-14.512
				c28.689,0.785,44.239,11.355,63.927,24.738c3.637,2.455,7.398,5.171,11.382,8.047c18.576,13.413,41.696,30.107,80.047,40.859
				c61.694,17.037,98.838,11.871,138.768-1.988c5.902-2.048,11.702-4.336,17.844-6.759c14.86-5.861,30.227-11.923,48.183-14.928
				c63.579-10.641,92.822,3.511,129.852,21.428c28.975,14.021,61.814,29.911,119.238,39.39L659.918,244.224z"/>
			<path style="fill:#2FCF51;" d="M659.626,246.191c-58.903-9.386-91.746-26.4-120.723-41.412
				c-36.004-18.652-64.442-33.384-127.49-23.418c-18.536,2.93-34.319,9.253-49.584,15.369c-5.585,2.238-10.86,4.351-16.243,6.296
				c-40.896,14.774-78.523,20.71-139.655,4.668c-40.071-10.675-63.429-27.896-82.197-41.733c-3.368-2.483-6.55-4.829-9.646-7
				l-0.889-0.627c-19.867-14.027-34.222-24.162-62.158-25.304c-18.972-0.707-34.405,7.251-48.009,14.275
				c-12.787,6.603-24.864,12.844-37.752,10.882l0.15-0.988c12.559,1.91,24.503-4.256,37.144-10.782
				c13.712-7.081,29.269-15.121,48.506-14.386c28.233,1.154,43.441,11.892,62.696,25.486l0.887,0.626
				c3.104,2.176,6.29,4.525,9.663,7.012c18.701,13.787,41.974,30.946,81.86,41.572c60.88,15.975,98.345,10.068,139.06-4.643
				c5.366-1.938,10.634-4.049,16.211-6.283c15.315-6.136,31.153-12.48,49.8-15.428c63.372-10.02,91.94,4.78,128.106,23.518
				c28.909,14.977,61.676,31.952,120.421,41.312L659.626,246.191z"/>
			<path style="fill:#30D051;" d="M659.336,248.159c-60.092-9.232-92.802-27.338-121.661-43.313
				c-35.229-19.5-63.057-34.903-126.005-25.53c-19.231,2.864-35.483,9.487-51.201,15.892c-5.015,2.043-9.751,3.974-14.59,5.792
				c-42.76,16.063-79.366,22.411-139.945,7.33c-41.634-10.522-65.106-28.23-83.968-42.458c-2.785-2.102-5.416-4.086-7.997-5.965
				l-2.042-1.497c-18.506-13.58-33.123-24.307-60.66-25.799c-19.22-0.989-34.723,7.055-48.397,14.143
				c-12.66,6.562-24.625,12.759-37.378,10.785l0.152-0.988c12.441,1.926,24.256-4.201,36.765-10.685
				c13.787-7.147,29.41-15.248,48.911-14.254c27.836,1.509,42.56,12.313,61.199,25.991l2.04,1.496
				c2.586,1.883,5.221,3.87,8.01,5.974c18.789,14.174,42.172,31.814,83.608,42.287c60.324,15.018,96.775,8.697,139.351-7.297
				c4.825-1.813,9.556-3.74,14.564-5.781c15.771-6.427,32.08-13.073,51.432-15.955c63.277-9.425,91.239,6.051,126.636,25.644
				c28.786,15.934,61.413,33.994,121.329,43.199L659.336,248.159z"/>
			<path style="fill:#30D050;" d="M659.045,250.127c-61.15-9.049-93.674-28.244-122.368-45.179
				c-34.532-20.38-61.81-36.475-124.749-27.676c-19.945,2.79-36.67,9.733-52.843,16.448c-4.241,1.761-8.627,3.582-12.912,5.253
				c-43.566,16.996-80.479,24.082-140.236,9.992c-43.206-10.341-66.75-28.552-85.667-43.186c-2.203-1.704-4.335-3.354-6.42-4.928
				l-3.033-2.312c-17.952-13.698-32.132-24.517-59.323-26.35c-19.45-1.251-35.034,6.855-48.777,14.008
				c-12.533,6.523-24.368,12.684-37.016,10.693l0.156-0.988c12.316,1.945,24.016-4.147,36.397-10.592
				c13.858-7.212,29.559-15.38,49.305-14.119c27.494,1.853,41.779,12.753,59.864,26.553l3.031,2.31
				c2.086,1.575,4.221,3.227,6.428,4.934c18.841,14.575,42.29,32.713,85.285,43.004c59.497,14.027,96.257,6.974,139.643-9.951
				c4.275-1.668,8.46-3.406,12.892-5.245c16.231-6.739,33.016-13.708,53.088-16.515c63.289-8.851,90.696,7.325,125.396,27.805
				c28.615,16.889,61.049,36.03,122.006,45.05L659.045,250.127z"/>
			<path style="fill:#31D150;" d="M658.755,252.095c-62.101-8.84-94.394-29.121-122.885-47.015
				c-32.555-20.445-60.665-38.103-123.686-29.852c-20.675,2.707-37.873,9.994-54.506,17.041c-3.682,1.56-7.488,3.173-11.213,4.68
				c-38.336,15.516-75.372,27.175-140.526,12.654c-44.787-10.132-68.356-28.866-87.295-43.918c-1.675-1.332-3.309-2.63-4.913-3.887
				c-1.319-1.04-2.612-2.066-3.888-3.078c-17.448-13.848-31.229-24.786-58.125-26.949c-19.694-1.523-35.339,6.653-49.146,13.867
				c-12.411,6.487-24.133,12.612-36.663,10.605l0.158-0.987c12.204,1.956,23.781-4.097,36.042-10.504
				c13.927-7.277,29.704-15.524,49.688-13.978c27.199,2.188,41.086,13.209,58.668,27.162c1.273,1.011,2.566,2.037,3.884,3.075
				c1.604,1.257,3.24,2.557,4.917,3.89c18.859,14.989,42.329,33.645,86.892,43.726c64.874,14.454,101.755,2.845,139.933-12.605
				c3.717-1.504,7.52-3.116,11.198-4.674c16.693-7.073,33.956-14.387,54.767-17.111c63.372-8.297,91.628,9.449,124.346,29.997
				c28.407,17.841,60.604,38.062,122.494,46.871L658.755,252.095z"/>
			<path style="fill:#31D250;" d="M658.464,254.062c-62.956-8.608-94.983-29.972-123.239-48.819
				c-31.991-21.338-59.615-39.769-122.781-32.058c-21.426,2.615-39.104,10.271-56.201,17.675c-3.178,1.376-6.332,2.742-9.482,4.063
				c-27.406,11.495-54.083,21.056-89.78,21.058c-15.143,0-31.901-1.72-51.038-5.742c-46.374-9.894-69.926-29.169-88.851-44.657
				c-1.179-0.964-2.336-1.912-3.479-2.839c-1.573-1.285-3.108-2.553-4.619-3.8c-16.988-14.027-30.406-25.106-57.049-27.591
				c-19.923-1.804-35.637,6.446-49.504,13.723c-12.291,6.451-23.908,12.544-36.319,10.521l0.16-0.987
				c12.087,1.969,23.555-4.048,35.694-10.418c13.989-7.342,29.849-15.663,50.061-13.834c26.95,2.514,40.474,13.68,57.594,27.816
				c1.51,1.246,3.043,2.513,4.614,3.795c1.142,0.928,2.301,1.876,3.479,2.841c18.842,15.419,42.29,34.609,88.425,44.452
				c63.966,13.448,101.35,1.045,140.225-15.259c3.146-1.32,6.298-2.685,9.472-4.059c17.162-7.432,34.908-15.117,56.478-17.75
				c63.523-7.755,91.3,10.77,123.457,32.219c28.167,18.788,60.092,40.083,122.819,48.661L658.464,254.062z"/>
			<path style="fill:#31D34F;" d="M658.173,256.029c-63.731-8.36-95.462-30.8-123.458-50.598
				c-31.47-22.253-58.648-41.474-122.014-34.292c-22.192,2.515-40.354,10.566-57.917,18.353c-2.588,1.147-5.161,2.288-7.731,3.404
				c-41.139,17.863-77.656,30.531-141.108,17.978c-47.959-9.628-71.452-29.461-90.329-45.398l-2.121-1.789
				c-1.792-1.517-3.534-3.013-5.246-4.483c-16.565-14.231-29.649-25.471-56.077-28.273c-20.15-2.083-35.929,6.236-49.854,13.576
				c-12.177,6.417-23.672,12.479-35.987,10.44l0.164-0.986c11.968,1.986,23.332-4.001,35.356-10.338
				c14.052-7.405,29.974-15.798,50.425-13.686c26.738,2.835,40.588,14.732,56.624,28.509c1.71,1.469,3.45,2.964,5.24,4.478
				l2.12,1.789c18.79,15.863,42.174,35.605,89.88,45.182c63.175,12.497,99.539-0.12,140.515-17.914
				c2.568-1.115,5.14-2.255,7.725-3.401c17.632-7.817,35.864-15.9,58.209-18.432c63.748-7.228,91.067,12.097,122.704,34.469
				c27.901,19.731,59.525,42.095,123.012,50.422L658.173,256.029z"/>
			<path style="fill:#32D44F;" d="M657.882,257.997c-64.436-8.096-95.846-31.605-123.559-52.348
				c-30.982-23.189-57.739-43.214-121.365-36.555c-22.982,2.407-41.631,10.885-59.666,19.083c-1.987,0.904-3.967,1.804-5.945,2.692
				c-36.316,16.311-73.869,33.18-141.4,20.639c-49.539-9.332-72.932-29.743-91.729-46.143l-0.843-0.735
				c-1.981-1.737-3.9-3.452-5.784-5.135c-15.533-13.884-28.947-25.874-55.192-28.986c-20.37-2.363-36.215,6.023-50.195,13.424
				c-12.064,6.387-23.456,12.417-35.662,10.363l0.166-0.986c11.869,1.999,23.118-3.956,35.028-10.261
				c14.108-7.469,30.106-15.933,50.779-13.533c26.56,3.149,40.084,15.237,55.743,29.233c1.881,1.681,3.797,3.394,5.775,5.128
				l0.842,0.734c18.705,16.32,41.984,36.632,91.255,45.914c67.223,12.481,104.63-4.32,140.807-20.569
				c1.977-0.888,3.956-1.788,5.941-2.69c18.108-8.232,36.832-16.744,59.977-19.167c64.016-6.7,90.918,13.433,122.067,36.748
				c27.614,20.668,58.912,44.093,123.085,52.156L657.882,257.997z"/>
			<path style="fill:#32D54E;" d="M657.591,259.964c-65.079-7.818-96.148-32.392-123.561-54.071
				c-30.523-24.142-56.885-44.994-120.814-38.842c-23.79,2.288-42.93,11.225-61.439,19.867l-4.137,1.928
				c-38.628,17.933-75.116,34.871-141.691,23.301c-51.107-9.009-74.164-29.834-92.69-46.569c-2.145-1.946-4.213-3.869-6.242-5.756
				c-15.184-14.119-28.296-26.312-54.391-29.73c-20.594-2.652-36.495,5.808-50.528,13.27c-11.954,6.356-23.247,12.362-35.346,10.29
				l0.168-0.985c11.76,2.01,22.396-3.639,34.708-10.188c14.164-7.532,30.218-16.072,51.126-13.378
				c26.413,3.46,39.635,15.754,54.943,29.99c2.026,1.884,4.092,3.805,6.232,5.747c18.431,16.647,41.369,37.367,92.192,46.326
				c66.269,11.516,102.616-5.358,141.097-23.224l4.136-1.927c18.586-8.678,37.805-17.651,61.767-19.956
				c64.327-6.191,90.838,14.777,121.531,39.052c27.308,21.599,58.26,46.079,123.059,53.864L657.591,259.964z"/>
			<path style="fill:#32D54E;" d="M657.301,261.933c-65.67-7.53-96.381-33.159-123.477-55.771
				c-30.088-25.109-56.073-46.793-120.351-41.155c-24.621,2.16-44.256,11.59-63.243,20.71l-4.359,2.092
				c-38.18,18.319-74.245,35.626-139.921,24.974c-52.593-8.645-75.839-30.386-92.812-46.26c-2.284-2.146-4.493-4.282-6.63-6.349
				c-14.856-14.371-27.687-26.781-53.658-30.502C32.038,126.73,16.08,135.258,2,142.781c-11.849,6.33-23.042,12.305-35.04,10.22
				l0.172-0.985c11.654,2.028,22.196-3.599,34.396-10.116c14.216-7.595,30.322-16.206,51.464-13.22
				c26.293,3.768,39.231,16.282,54.212,30.773c2.134,2.064,4.341,4.199,6.618,6.338c16.879,15.787,39.996,37.408,92.289,46.004
				c65.37,10.6,101.293-6.639,139.327-24.889l4.358-2.092c19.069-9.158,38.787-18.629,63.589-20.805
				c64.696-5.674,90.82,16.132,121.079,41.384c26.988,22.521,57.577,48.049,122.949,55.545L657.301,261.933z"/>
			<path style="fill:#33D64D;" d="M657.009,263.899c-66.211-7.232-96.55-33.909-123.316-57.445
				c-29.675-26.092-55.303-48.629-119.961-43.493c-25.475,2.022-45.609,11.985-65.08,21.621l-4.871,2.415
				c-30.083,14.94-58.838,29.216-102.567,29.218c-10.767,0-22.433-0.864-35.26-2.798c-49.816-7.607-73.225-26.872-92.932-45.951
				c-2.402-2.334-4.718-4.664-6.956-6.916c-14.549-14.637-27.114-27.279-52.988-31.3c-21.028-3.23-37.04,5.367-51.168,12.951
				c-11.743,6.303-22.841,12.258-34.738,10.152l0.174-0.984c11.563,2.042,22.002-3.561,34.092-10.049
				c14.265-7.658,30.431-16.34,51.794-13.058c26.199,4.072,38.871,16.821,53.544,31.584c2.236,2.249,4.548,4.575,6.943,6.903
				c15.417,14.926,38.717,37.484,92.385,45.681c64.611,9.739,99.887-7.78,137.233-26.327l4.871-2.416
				c19.557-9.677,39.779-19.684,65.445-21.721c65.076-5.171,92.097,18.588,120.7,43.739c26.655,23.438,56.868,50.005,122.766,57.202
				L657.009,263.899z"/>
			<path style="fill:#33D74D;" d="M656.719,265.867c-66.712-6.926-96.667-34.642-123.095-59.096
				c-28.059-25.962-54.552-50.485-119.635-45.855c-26.321,1.873-47.12,12.486-65.471,21.85c-2.181,1.113-4.354,2.231-6.526,3.349
				c-35.266,18.146-71.731,36.907-136.038,27.938c-51.022-7.207-73.945-26.5-93.051-45.643c-2.503-2.515-4.906-5.029-7.229-7.461
				c-14.259-14.917-26.572-27.801-52.37-32.12C32.07,125.31,16,133.972,1.827,141.616c-11.642,6.278-22.634,12.207-34.447,10.088
				l0.178-0.984c11.464,2.061,21.813-3.521,33.794-9.984c14.313-7.72,30.535-16.47,52.117-12.893
				c26.126,4.374,38.546,17.369,52.928,32.415c2.32,2.428,4.721,4.938,7.215,7.446c18.985,19.022,41.766,38.194,92.482,45.358
				c63.988,8.93,100.314-9.763,135.44-27.837c2.174-1.118,4.348-2.237,6.529-3.35c18.436-9.407,39.331-20.069,65.855-21.957
				c65.502-4.658,92.162,20.006,120.384,46.119c27.6,25.537,56.139,51.944,122.52,58.836L656.719,265.867z"/>
			<path style="fill:#34D84D;" d="M656.428,267.834c-67.176-6.611-95.462-34.12-122.815-60.722
				c-27.692-26.93-53.828-52.371-119.365-48.241c-25.058,1.579-44.46,10.838-65.436,21.868c-2.793,1.469-5.574,2.953-8.357,4.438
				c-34.757,18.539-70.699,37.708-134.497,29.511c-52.165-6.783-75.445-26.958-93.171-45.334c-2.586-2.688-5.062-5.381-7.455-7.985
				c-13.983-15.21-26.06-28.346-51.8-32.96c-21.459-3.817-37.566,4.917-51.781,12.621c-11.542,6.255-22.446,12.166-34.159,10.026
				l0.18-0.983c11.369,2.075,21.627-3.484,33.504-9.922c14.358-7.782,30.63-16.604,52.433-12.726
				c26.073,4.674,38.255,17.925,52.359,33.268c2.391,2.6,4.862,5.289,7.439,7.968c17.607,18.255,40.735,38.295,92.579,45.036
				c63.483,8.159,99.279-10.936,133.898-29.401c2.785-1.486,5.568-2.97,8.363-4.44c21.079-11.085,40.583-20.39,65.838-21.981
				c65.953-4.15,92.269,21.432,120.124,48.522c27.231,26.482,55.39,53.866,122.217,60.443L656.428,267.834z"/>
			<path style="fill:#34D94C;" d="M656.138,269.802c-67.607-6.293-95.508-34.778-122.489-62.326
				c-27.337-27.911-53.155-54.279-119.144-50.648c-25.684,1.411-45.592,11.158-65.4,21.886c-3.332,1.805-6.647,3.639-9.971,5.477
				c-29.187,16.144-59.228,32.755-106.579,32.757c-8.306,0-17.136-0.511-26.597-1.625c-53.253-6.335-76.076-26.562-93.289-45.024
				c-2.654-2.852-5.188-5.717-7.637-8.487c-13.721-15.515-25.57-28.914-51.274-33.823c-21.666-4.112-37.822,4.688-52.076,12.452
				c-11.444,6.234-22.254,12.123-33.881,9.967l0.182-0.983c11.275,2.089,21.445-3.449,33.221-9.862
				c14.401-7.844,30.719-16.735,52.742-12.556c26.039,4.973,38.569,19.142,51.836,34.143c2.445,2.766,4.975,5.625,7.619,8.468
				c17.092,18.332,39.759,38.417,92.675,44.713c63.075,7.423,98.406-12.116,132.574-31.015c3.326-1.839,6.645-3.675,9.979-5.48
				c19.913-10.785,39.932-20.584,65.822-22.006c66.427-3.65,92.413,22.871,119.913,50.948
				c26.855,27.419,54.625,55.771,121.866,62.029L656.138,269.802z"/>
			<path style="fill:#34DA4C;" d="M655.846,271.77c-68.007-5.968-95.515-35.423-122.117-63.907
				c-26.992-28.902-52.479-56.202-118.966-53.08c-26.271,1.233-46.696,11.498-65.365,21.905c-3.805,2.121-7.661,4.333-11.391,6.472
				c-29.322,16.819-59.518,34.133-107.941,34.135c-7.57,0.001-15.577-0.422-24.105-1.336c-54.288-5.871-76.682-26.16-93.409-44.715
				c-2.708-3.01-5.287-6.04-7.78-8.971c-13.47-15.83-25.103-29.501-50.786-34.705c-21.876-4.414-38.075,4.457-52.365,12.281
				c-11.351,6.214-22.067,12.084-33.609,9.911l0.186-0.982c11.187,2.105,21.269-3.413,32.943-9.805
				c14.442-7.906,30.815-16.864,53.044-12.384c26.022,5.272,38.325,19.73,51.35,35.037c2.489,2.925,5.063,5.95,7.762,8.949
				c16.604,18.418,38.835,38.558,92.773,44.391c62.756,6.728,97.673-13.303,131.442-32.672c3.732-2.141,7.591-4.354,11.401-6.478
				c18.772-10.466,39.316-20.788,65.805-22.031c66.923-3.138,92.59,24.321,119.743,53.396
				c26.474,28.347,53.849,57.659,121.475,63.594L655.846,271.77z"/>
			<path style="fill:#35DA4B;" d="M655.556,273.736c-68.383-5.639-95.493-36.053-121.711-65.466
				c-26.654-29.903-51.828-58.145-118.824-55.533c-26.836,1.048-46.989,11.405-65.33,21.923c-4.221,2.421-8.502,4.967-12.643,7.429
				c-33.55,19.953-68.251,40.584-131.086,34.504c-55.282-5.392-77.264-25.749-93.528-44.407c-2.751-3.161-5.363-6.351-7.89-9.436
				c-12.679-15.483-24.654-30.107-50.332-35.604c-22.084-4.71-38.323,4.225-52.65,12.108c-11.257,6.194-21.894,12.044-33.341,9.856
				l0.188-0.982c11.098,2.12,21.096-3.38,32.672-9.75c14.479-7.967,30.895-16.998,53.341-12.209
				c26.021,5.57,38.104,20.326,50.896,35.949c2.521,3.079,5.13,6.264,7.87,9.413c16.138,18.512,37.954,38.712,92.871,44.067
				c62.522,6.053,97.067-14.497,130.479-34.367c4.144-2.464,8.428-5.013,12.655-7.437c18.449-10.581,38.727-20.999,65.789-22.055
				c67.499-2.639,92.794,25.783,119.609,55.867c26.087,29.267,53.063,59.529,121.047,65.135L655.556,273.736z"/>
			<path style="fill:#35DB4B;" d="M655.265,275.704c-68.733-5.306-95.442-36.671-121.271-67.004
				c-26.325-30.915-51.168-60.117-118.715-58.007c-24.741,0.772-43.996,9.33-65.295,21.941c-4.681,2.749-9.43,5.67-14.022,8.495
				c-29.592,18.203-60.09,36.958-110.689,36.96c-6.132,0-12.552-0.275-19.309-0.86c-56.236-4.896-77.826-25.33-93.647-44.098
				c-2.783-3.305-5.42-6.649-7.969-9.884c-12.456-15.804-24.222-30.731-49.909-36.521c-22.29-5.013-38.567,3.989-52.928,11.932
				c-11.167,6.176-21.712,12.009-33.081,9.804l0.191-0.981c11.01,2.138,20.927-3.348,32.406-9.697
				C15.545,129.754,32,120.655,54.658,125.75c26.034,5.868,37.905,20.931,50.475,36.877c2.544,3.229,5.176,6.566,7.948,9.858
				c15.692,18.615,37.113,38.882,92.969,43.746c62.196,5.387,96.35-15.631,129.388-35.955c4.598-2.828,9.351-5.752,14.039-8.505
				c21.43-12.689,40.816-21.3,65.771-22.08c67.975-2.118,93.021,27.256,119.507,58.36c25.696,30.177,52.268,61.381,120.586,66.655
				L655.265,275.704z"/>
			<path style="fill:#36DC4A;" d="M654.974,277.672c-69.063-4.97-95.365-37.276-120.802-68.52
				c-26.001-31.937-50.563-62.107-118.635-60.504c-25.119,0.589-44.256,9.205-65.261,21.959c-4.957,2.998-9.77,6.068-14.863,9.319
				c-32.917,21.003-66.946,42.727-129.448,37.937c-54.437-4.182-77.236-23.517-93.766-43.788c-2.806-3.443-5.458-6.938-8.022-10.318
				c-12.24-16.132-23.803-31.37-49.511-37.452c-22.495-5.317-38.808,3.752-53.201,11.755c-11.077,6.159-21.54,11.974-32.824,9.754
				l0.193-0.981c10.929,2.154,20.76-3.315,32.146-9.646c14.55-8.09,31.038-17.262,53.917-11.854
				c26.058,6.165,37.725,21.542,50.077,37.82c2.56,3.373,5.206,6.861,8.001,10.291c16.389,20.099,39.006,39.27,93.066,43.424
				c62.169,4.761,96.056-16.868,128.834-37.784c4.875-3.111,9.916-6.328,14.883-9.331c30.955-18.796,49.897-21.732,65.756-22.104
				c68.573-1.618,93.273,28.741,119.434,60.873c25.303,31.079,51.467,63.215,120.099,68.153L654.974,277.672z"/>
			<path style="fill:#36DD4A;" d="M654.683,279.64c-69.373-4.631-95.268-37.871-120.309-70.016
				c-25.683-32.967-49.938-64.097-118.579-63.021c-33.102,0.523-56.282,15.858-80.824,32.094
				c-28.688,18.979-60.909,40.289-114.641,40.291c-4.627,0-9.406-0.157-14.363-0.488c-65.522-4.374-84.867-30.853-101.936-54.215
				c-12.032-16.468-23.396-32.024-49.138-38.399c-22.697-5.624-39.046,3.514-53.468,11.575c-10.99,6.143-21.371,11.944-32.575,9.705
				l0.195-0.98c10.847,2.167,20.598-3.285,31.892-9.598c14.585-8.152,31.118-17.391,54.196-11.673
				c26.095,6.463,37.563,22.161,49.705,38.78c16.939,23.186,36.138,49.464,101.194,53.807
				c62.195,4.145,97.359-19.113,128.386-39.638c24.667-16.318,47.967-31.732,81.36-32.26c69.128-1.097,93.544,30.237,119.384,63.406
				c24.906,31.972,50.66,65.032,119.586,69.633L654.683,279.64z"/>
			<path style="fill:#37DE4A;" d="M653.74,280.777c-69.745-4.634-95.574-38.396-120.554-71.047
				c-25.042-32.732-48.722-63.678-114.328-63.678c-1.009,0-2.021,0.007-3.05,0.022c-33.315,0.437-56.634,16.047-81.321,32.574
				c-28.718,19.225-60.978,40.818-114.6,40.82c-4.471,0-9.085-0.15-13.864-0.464c-65.512-4.286-84.882-31.271-101.972-55.079
				c-12.022-16.749-23.378-32.568-49.061-38.851c-22.671-5.537-39.021,3.709-53.445,11.868
				c-11.008,6.227-21.407,12.109-32.631,9.896l0.193-0.981c10.864,2.145,20.633-3.386,31.945-9.785
				c14.586-8.25,31.118-17.601,54.175-11.969c26.042,6.37,37.503,22.336,49.636,39.239c16.961,23.627,36.185,50.408,101.225,54.664
				c61.752,4.052,96.862-19.45,127.843-40.189c24.813-16.612,48.251-32.302,81.863-32.743
				c68.479-0.975,92.603,30.608,118.186,64.049c24.844,32.474,50.534,66.053,119.826,70.656L653.74,280.777z"/>
			<path style="fill:#38DE4A;" d="M652.797,281.915c-70.116-4.636-95.879-38.925-120.794-72.084
				c-25.172-33.501-48.957-65.127-116.182-64.286c-33.529,0.349-56.983,16.237-81.814,33.057
				c-28.744,19.471-61.042,41.345-114.546,41.347c-4.32,0-8.773-0.143-13.379-0.44c-65.505-4.199-84.899-31.69-102.011-55.945
				c-12.014-17.028-23.36-33.111-48.982-39.3c-22.65-5.45-38.998,3.905-53.421,12.161c-11.027,6.312-21.436,12.274-32.688,10.087
				l0.191-0.981c10.884,2.115,20.667-3.488,31.999-9.974c14.587-8.349,31.119-17.811,54.152-12.265
				c25.987,6.276,37.44,22.509,49.564,39.695c16.982,24.071,36.231,51.354,101.259,55.523c61.313,3.964,94.855-18.76,127.299-40.737
				c24.96-16.907,48.535-32.876,82.365-33.229c67.711-0.844,91.664,30.977,116.991,64.686
				c24.78,32.979,50.403,67.081,120.062,71.687L652.797,281.915z"/>
			<path style="fill:#39DF4B;" d="M651.854,283.054c-70.489-4.639-96.185-39.457-121.033-73.129
				c-24.916-33.763-48.447-65.663-114.985-64.909c-33.743,0.261-57.333,16.427-82.308,33.543
				c-28.769,19.715-61.105,41.87-114.484,41.872c-4.173,0.001-8.466-0.135-12.905-0.417c-65.499-4.112-84.918-32.11-102.051-56.812
				c-12.003-17.307-23.341-33.653-48.901-39.747c-22.62-5.368-38.973,4.099-53.397,12.452
				c-11.046,6.396-21.482,12.439-32.743,10.279l0.188-0.982c10.9,2.092,20.702-3.588,32.055-10.162
				c14.586-8.447,31.12-18.02,54.13-12.559c25.933,6.183,37.376,22.682,49.492,40.149c17.003,24.516,36.275,52.302,101.292,56.384
				c60.87,3.869,94.368-19.083,126.761-41.282c25.104-17.204,48.816-33.454,82.863-33.718c67.07-0.764,90.729,31.341,115.8,65.315
				c24.714,33.488,50.269,68.116,120.295,72.725L651.854,283.054z"/>
			<path style="fill:#3ADF4B;" d="M650.912,284.191c-70.891-4.644-96.516-39.956-121.297-74.106
				c-24.659-33.983-47.949-66.043-113.767-65.598c-33.922,0.249-57.627,16.669-82.726,34.053
				c-30.981,21.46-66.103,45.773-126.927,41.978c-65.495-4.026-84.938-32.532-102.093-57.682
				c-11.994-17.584-23.322-34.193-48.819-40.192c-22.598-5.286-38.948,4.292-53.374,12.744
				c-11.063,6.48-21.516,12.604-32.799,10.471l0.186-0.982c10.919,2.062,20.737-3.69,32.108-10.351
				c14.586-8.545,31.114-18.23,54.107-12.854c25.876,6.088,37.311,22.854,49.417,40.603c17.024,24.96,36.321,53.251,101.328,57.247
				c60.485,3.775,93.941-19.391,126.296-41.802c25.229-17.475,49.058-33.98,83.287-34.231c66.315-0.463,89.77,31.813,114.584,66.01
				c24.646,33.964,50.13,69.084,120.552,73.696L650.912,284.191z"/>
			<path style="fill:#3BE04B;" d="M649.97,285.329c-71.271-4.646-96.824-40.487-121.535-75.148
				c-24.275-34.05-47.22-66.225-111.56-66.225c-0.34,0-0.672,0-1.014,0.002c-34.125,0.178-57.961,16.874-83.197,34.55
				c-28.821,20.189-61.236,42.888-114.389,42.89c-3.896,0-7.895-0.121-12.021-0.375c-65.495-3.939-84.963-32.954-102.138-58.553
				c-11.983-17.861-23.303-34.731-48.735-40.636c-22.57-5.196-38.924,4.488-53.35,13.035c-11.083,6.566-21.548,12.77-32.856,10.663
				l0.184-0.983c10.931,2.038,20.771-3.792,32.163-10.54c14.587-8.643,31.116-18.44,54.085-13.149
				c25.818,5.994,37.243,23.023,49.34,41.053c17.046,25.407,36.366,54.203,101.368,58.113c60.072,3.686,93.47-19.708,125.775-42.335
				c25.367-17.769,49.327-34.552,83.765-34.731c0.341-0.002,0.686-0.003,1.023-0.003c64.861,0,87.939,32.376,112.37,66.644
				c24.575,34.472,49.987,70.117,120.785,74.731L649.97,285.329z"/>
			<path style="fill:#3CE04B;" d="M649.026,286.468c-71.575-4.644-97.053-41.127-121.692-76.408
				c-23.925-34.259-46.543-66.639-109.656-66.639c-0.599,0-1.193,0.003-1.8,0.009c-34.239,0.33-58.152,17.226-83.469,35.114
				c-30.199,21.338-61.364,43.354-114.047,43.355c-3.898,0.001-7.907-0.12-12.051-0.37c-65.495-3.854-84.986-33.378-102.182-59.427
				c-11.974-18.137-23.283-35.269-48.65-41.078c-22.551-5.114-38.899,4.682-53.326,13.325
				c-11.101,6.652-21.592,12.935-32.912,10.856l0.18-0.983c10.956,2.011,20.81-3.894,32.219-10.73
				c14.588-8.74,31.121-18.645,54.062-13.443c25.76,5.899,37.176,23.193,49.263,41.502c17.066,25.853,36.411,55.156,101.407,58.98
				c59.778,3.606,93.168-19.986,125.461-42.804c25.448-17.981,49.484-34.965,84.036-35.297c0.607-0.006,1.218-0.009,1.817-0.009
				c63.639,0,86.389,32.584,110.469,67.065c24.504,35.088,49.842,71.371,120.937,75.983L649.026,286.468z"/>
			<path style="fill:#3DE14C;" d="M648.084,287.605c-71.947-4.646-97.349-41.68-121.914-77.495
				c-23.703-34.557-46.109-67.216-108.74-67.216c-0.513,0-1.021,0.002-1.539,0.006c-34.432,0.291-58.466,17.455-83.912,35.626
				c-30.225,21.584-61.418,43.855-113.987,43.857c-3.765,0-7.631-0.114-11.622-0.351c-65.498-3.768-85.012-33.802-102.229-60.301
				c-11.963-18.413-23.262-35.805-48.564-41.519c-22.518-5.029-38.873,4.875-53.301,13.616
				c-11.121,6.737-21.63,13.098-32.969,11.049l0.178-0.984c10.973,1.983,20.843-3.995,32.272-10.92
				c14.588-8.837,31.121-18.855,54.039-13.736c25.699,5.804,37.106,23.361,49.184,41.949c17.087,26.3,36.454,56.11,101.447,59.848
				c59.371,3.52,92.722-20.293,124.971-43.322c25.578-18.267,49.737-35.52,84.485-35.813c0.519-0.004,1.041-0.006,1.554-0.006
				c63.162,0,85.7,32.867,109.558,67.65c24.431,35.618,49.692,72.448,121.154,77.063L648.084,287.605z"/>
			<path style="fill:#3EE14C;" d="M647.141,288.744c-72.319-4.647-97.643-42.237-122.133-78.589
				c-23.479-34.853-45.673-67.788-107.821-67.788c-0.428,0-0.85,0.002-1.281,0.005c-34.626,0.25-58.783,17.684-84.359,36.142
				c-32.343,23.341-65.78,47.481-125.119,44.025c-65.503-3.682-85.039-34.228-102.276-61.179
				c-11.952-18.687-23.241-36.338-48.476-41.956c-22.503-4.949-38.852,5.069-53.279,13.906
				c-11.139,6.822-21.659,13.267-33.024,11.242l0.176-0.984c10.993,1.958,20.879-4.098,32.327-11.11
				c14.589-8.936,31.126-19.065,54.017-14.03c25.639,5.708,37.035,23.528,49.102,42.394c17.108,26.749,36.499,57.066,101.492,60.719
				c58.98,3.428,92.275-20.6,124.477-43.838c25.709-18.554,49.992-36.079,84.937-36.331c63.691-0.449,86.145,32.903,109.939,68.225
				c24.355,36.151,49.539,73.533,121.368,78.149L647.141,288.744z"/>
			<path style="fill:#3FE24C;" d="M646.198,289.882c-72.694-4.649-97.938-42.797-122.35-79.688
				c-23.256-35.144-45.237-68.353-106.901-68.353c-0.344,0-0.682,0.001-1.028,0.003c-34.82,0.207-59.101,17.913-84.807,36.66
				c-30.27,22.074-61.511,44.853-113.836,44.854c-3.503,0-7.094-0.103-10.792-0.313c-65.509-3.596-85.068-34.654-102.326-62.057
				c-11.941-18.961-23.221-36.871-48.387-42.393c-22.465-4.863-38.825,5.261-53.254,14.196
				c-11.157,6.908-21.696,13.431-33.081,11.436l0.172-0.985c11.015,1.934,20.914-4.201,32.382-11.301
				c14.59-9.032,31.127-19.271,53.994-14.322c25.577,5.612,36.964,23.694,49.021,42.837c17.128,27.197,36.541,58.024,101.535,61.591
				c58.584,3.344,91.829-20.903,123.983-44.351c25.84-18.844,50.247-36.643,85.39-36.852c0.346-0.002,0.696-0.003,1.04-0.003
				c62.206,0,84.319,33.424,107.729,68.801c24.277,36.688,49.382,74.624,121.58,79.242L646.198,289.882z"/>
			<path style="fill:#40E24C;" d="M645.255,291.02c-73.183-4.658-98.343-43.202-122.676-80.477
				c-23.125-35.427-44.969-68.888-106.652-69.229c-35.115-0.209-59.628,17.91-85.547,37.078
				c-30.244,22.366-61.462,45.447-113.525,45.449c-3.352,0-6.783-0.096-10.313-0.293c-65.516-3.51-85.099-35.082-102.376-62.937
				c-11.93-19.234-23.198-37.402-48.295-42.828c-22.445-4.779-38.802,5.455-53.231,14.485c-11.175,6.994-21.733,13.599-33.137,11.63
				l0.17-0.985c11.03,1.905,20.95-4.304,32.437-11.492c14.59-9.13,31.128-19.477,53.972-14.615
				c25.513,5.516,36.89,23.859,48.935,43.279c17.148,27.647,36.585,58.983,101.581,62.466c58.004,3.24,91.141-21.262,123.189-44.962
				c25.917-19.166,50.408-37.275,85.58-37.275c0.19,0,0.377,0,0.567,0.001c62.222,0.343,84.207,34.024,107.484,69.682
				c24.197,37.068,49.219,75.398,121.901,80.025L645.255,291.02z"/>
			<path style="fill:#41E34C;" d="M644.313,292.158c-73.568-4.661-98.645-43.758-122.896-81.567
				c-22.87-35.657-44.472-69.337-105.478-69.806c-0.257-0.002-0.517-0.003-0.772-0.003c-34.939,0-59.378,18.265-85.243,37.596
				c-30.257,22.612-61.492,45.949-113.407,45.952c-3.228,0-6.525-0.09-9.918-0.276c-65.526-3.424-85.131-35.51-102.429-63.819
				c-11.919-19.506-23.177-37.931-48.204-43.261c-22.426-4.698-38.777,5.648-53.206,14.774
				c-11.195,7.08-21.771,13.762-33.194,11.825l0.168-0.986c11.052,1.876,20.986-4.406,32.491-11.684
				c14.59-9.227,31.124-19.688,53.948-14.907c25.449,5.419,36.816,24.022,48.851,43.718c17.168,28.098,36.628,59.946,101.629,63.342
				c57.596,3.154,90.679-21.567,122.673-45.479c26-19.431,50.575-37.794,85.839-37.794c0.263,0,0.52,0.001,0.783,0.003
				c61.547,0.473,83.291,34.374,106.312,70.266c24.116,37.6,49.054,76.48,122.116,81.109L644.313,292.158z"/>
			<path style="fill:#42E44D;" d="M643.37,293.296c-73.954-4.663-98.943-44.317-123.11-82.665
				c-22.615-35.885-43.975-69.78-104.306-70.375c-0.328-0.003-0.657-0.005-0.983-0.005c-35.031,0-59.552,18.519-85.5,38.115
				c-32.084,24.229-65.26,49.284-122.813,46.192c-65.537-3.338-85.165-35.939-102.482-64.702
				c-11.907-19.778-23.154-38.459-48.11-43.692c-22.398-4.61-38.754,5.841-53.184,15.063c-11.213,7.166-21.804,13.935-33.248,12.019
				l0.164-0.986c11.08,1.854,21.021-4.51,32.546-11.875c14.591-9.325,31.133-19.893,53.925-15.199
				c25.385,5.323,36.741,24.186,48.765,44.156c17.188,28.55,36.67,60.908,101.677,64.22c57.193,3.064,90.218-21.871,122.159-45.992
				c26.084-19.699,50.741-38.317,86.099-38.317c0.334,0,0.662,0.001,0.997,0.005c60.876,0.6,82.378,34.719,105.142,70.841
				c24.033,38.136,48.884,77.569,122.327,82.2L643.37,293.296z"/>
			<path style="fill:#43E44D;" d="M642.428,294.435c-74.341-4.666-99.242-44.881-123.323-83.771
				c-22.359-36.11-43.479-70.217-103.138-70.936c-35.798-0.451-60.624,18.542-86.95,38.629
				c-30.277,23.102-61.535,46.949-113.145,46.951c-2.985,0-6.032-0.08-9.158-0.244c-65.549-3.253-85.198-36.369-102.535-65.587
				c-11.896-20.049-23.132-38.985-48.017-44.122c-22.373-4.528-38.729,6.033-53.158,15.351
				c-11.231,7.252-21.848,14.101-33.307,12.214l0.162-0.986c11.09,1.821,21.057-4.613,32.602-12.068
				c14.592-9.422,31.134-20.099,53.902-15.491c25.318,5.227,36.664,24.348,48.676,44.592c17.208,29.001,36.712,61.873,101.726,65.1
				c56.785,2.974,89.76-22.174,121.646-46.503c26.466-20.195,51.437-39.277,87.568-38.834
				c60.209,0.725,81.468,35.059,103.976,71.409c23.948,38.675,48.711,78.667,122.536,83.3L642.428,294.435z"/>
			<path style="fill:#44E54D;" d="M641.484,295.572c-74.728-4.667-99.538-45.448-123.532-84.886
				c-22.104-36.332-42.981-70.648-101.972-71.488c-35.965-0.491-60.956,18.755-87.417,39.152
				c-31.973,24.648-65.049,50.144-121.791,47.217c-65.538-3.166-85.207-36.81-102.562-66.493
				c-12.403-21.216-23.115-39.539-47.95-44.531c-22.345-4.492-38.712,6.195-53.149,15.625c-11.247,7.346-21.873,14.283-33.35,12.424
				l0.16-0.987c11.092,1.795,21.082-4.723,32.643-12.274c14.598-9.534,31.145-20.339,53.894-15.768
				c25.274,5.081,36.612,24.475,48.616,45.007c17.226,29.464,36.75,62.859,101.748,66c56.366,2.891,89.302-22.475,121.131-47.011
				c26.602-20.507,51.757-39.888,88.041-39.36c59.544,0.847,80.562,35.394,102.813,71.968c23.86,39.219,48.533,79.772,122.74,84.407
				L641.484,295.572z"/>
			<path style="fill:#45E54D;" d="M640.542,296.71c-75.116-4.67-99.834-46.02-123.737-86.009
				c-21.849-36.55-42.486-71.073-100.811-72.031c-0.537-0.009-1.072-0.013-1.604-0.013c-35.312,0-60.08,19.288-86.28,39.691
				c-30.29,23.588-61.563,47.938-112.847,47.94c-2.755,0-5.562-0.07-8.435-0.215c-65.551-3.08-85.242-37.242-102.615-67.382
				c-12.391-21.498-23.093-40.064-47.854-44.957c-22.327-4.415-38.69,6.385-53.128,15.912c-11.265,7.433-21.903,14.454-33.404,12.62
				l0.158-0.987c11.11,1.771,21.117-4.827,32.695-12.467c14.598-9.632,31.142-20.549,53.872-16.058
				c25.208,4.981,36.535,24.633,48.527,45.438c17.245,29.918,36.791,63.828,101.798,66.884c56.006,2.8,88.846-22.774,120.618-47.516
				c26.737-20.821,52.012-40.474,88.514-39.889c58.882,0.967,79.657,35.723,101.652,72.519
				c23.771,39.767,48.352,80.887,122.942,85.523L640.542,296.71z"/>
			<path style="fill:#46E64D;" d="M639.599,297.849c-75.505-4.672-100.128-46.596-123.939-87.14
				c-21.594-36.767-41.99-71.494-99.653-72.568c-36.371-0.686-61.619,19.182-88.348,40.207
				c-31.858,25.062-64.775,50.977-120.771,48.23c-65.566-2.994-85.279-37.675-102.671-68.273
				c-12.379-21.778-23.07-40.587-47.76-45.381c-22.299-4.332-38.665,6.575-53.104,16.198c-11.282,7.52-21.939,14.622-33.46,12.817
				l0.154-0.988c11.132,1.746,21.152-4.931,32.751-12.661c14.599-9.729,31.144-20.759,53.85-16.348
				c25.141,4.882,36.457,24.791,48.438,45.869c17.265,30.373,36.832,64.799,101.849,67.769
				c55.623,2.718,88.393-23.071,120.106-48.018c26.873-21.139,52.277-41.114,88.985-40.421
				c58.223,1.085,78.756,36.046,100.495,73.061c23.681,40.318,48.166,82.01,123.141,86.648L639.599,297.849z"/>
			<path style="fill:#47E64E;" d="M638.657,298.986c-75.896-4.674-100.423-47.176-124.142-88.279
				c-21.338-36.979-41.493-71.907-98.496-73.095c-36.573-0.783-61.95,19.396-88.813,40.739
				c-31.801,25.266-64.681,51.398-120.261,48.733c-65.584-2.91-85.318-38.111-102.729-69.167
				c-12.366-22.058-23.046-41.107-47.661-45.803c-22.277-4.25-38.642,6.766-53.081,16.485
				c-11.302,7.606-21.972,14.792-33.517,13.014l0.152-0.988c11.147,1.717,21.187-5.036,32.806-12.855
				c14.599-9.826,31.139-20.964,53.827-16.638c25.072,4.783,36.377,24.947,48.346,46.296
				c17.284,30.829,36.874,65.771,101.903,68.657c55.194,2.647,87.937-23.365,119.593-48.517
				c27.008-21.458,52.486-41.724,89.457-40.956c57.565,1.2,77.857,36.365,99.341,73.595c23.587,40.874,47.977,83.141,123.337,87.781
				L638.657,298.986z"/>
			<path style="fill:#48E74E;" d="M637.714,300.124c-34.13-2.092-60.976-12.268-82.072-31.11
				c-18.642-16.648-30.651-37.831-42.265-58.316c-21.084-37.188-40.998-72.314-97.345-73.614
				c-36.748-0.848-62.282,19.612-89.278,41.273c-31.743,25.469-64.578,51.815-119.752,49.232
				c-65.601-2.824-85.356-38.545-102.786-70.061c-12.354-22.337-23.022-41.627-47.563-46.224
				c-22.257-4.167-38.619,6.957-53.059,16.771c-11.318,7.694-22.011,14.957-33.571,13.211l0.15-0.989
				c11.169,1.688,21.223-5.14,32.859-13.05c14.599-9.922,31.149-21.171,53.804-16.926c25.004,4.683,36.298,25.103,48.255,46.723
				c17.303,31.286,36.914,66.745,101.956,69.546c54.795,2.584,87.484-23.659,119.081-49.013
				c27.143-21.779,52.758-42.339,89.928-41.493c56.913,1.313,76.964,36.678,98.19,74.121c23.491,41.435,47.782,84.28,123.528,88.922
				L637.714,300.124z"/>
			<path style="fill:#49E74E;" d="M636.771,301.263c-34.303-2.093-61.243-12.395-82.362-31.496
				c-18.655-16.874-30.608-38.334-42.169-59.089c-20.829-37.394-40.502-72.714-96.194-74.123
				c-36.938-0.946-62.612,19.827-89.743,41.811c-30.293,24.546-61.575,49.89-112.159,49.892c-2.321,0-4.68-0.054-7.084-0.163
				c-65.619-2.739-85.396-38.981-102.846-70.957c-12.341-22.614-22.998-42.145-47.465-46.643
				c-22.219-4.084-38.594,7.146-53.033,17.057c-11.339,7.781-22.049,15.125-33.628,13.409l0.146-0.989
				c11.195,1.666,21.259-5.244,32.915-13.244c14.6-10.02,31.143-21.376,53.781-17.215c24.935,4.584,36.217,25.259,48.161,47.147
				c17.322,31.743,36.955,67.721,102.011,70.437c54.422,2.479,87.032-23.952,118.57-49.506
				c27.277-22.103,53.027-42.973,90.398-42.034c56.263,1.424,76.071,36.986,97.043,74.637c23.394,42,47.584,85.43,123.718,90.073
				L636.771,301.263z"/>
			<path style="fill:#4AE84E;" d="M635.828,302.4c-34.476-2.093-61.511-12.522-82.65-31.886c-18.669-17.1-30.565-38.84-42.07-59.863
				c-20.574-37.597-40.007-73.109-95.048-74.625c-37.193-1.041-62.945,20.044-90.208,42.352
				c-31.623,25.873-64.307,52.626-118.734,50.221c-65.639-2.653-85.438-39.418-102.905-71.855
				c-12.328-22.891-22.975-42.661-47.364-47.06c-22.194-4.005-38.57,7.335-53.011,17.342c-11.356,7.869-22.08,15.303-33.685,13.607
				l0.145-0.989c11.221,1.633,21.296-5.35,32.971-13.439c14.599-10.116,31.139-21.586,53.758-17.504
				c24.864,4.485,35.616,24.451,48.066,47.57c17.342,32.202,36.996,68.699,102.068,71.33c54.039,2.39,86.582-24.242,118.058-49.996
				c27.413-22.429,53.335-43.611,90.869-42.578c55.615,1.532,75.182,37.289,95.897,75.145
				c23.295,42.568,47.382,86.586,123.904,91.231L635.828,302.4z"/>
			<path style="fill:#4BE94F;" d="M634.886,303.539c-34.649-2.094-61.779-12.652-82.94-32.279
				c-18.681-17.328-30.52-39.349-41.969-60.645c-20.319-37.797-39.512-73.497-93.904-75.119
				c-37.454-1.13-63.275,20.263-90.672,42.895c-30.282,25.017-61.56,50.851-111.767,50.853c-2.121,0-4.27-0.046-6.459-0.14
				c-65.66-2.569-85.479-39.857-102.967-72.755c-12.314-23.167-22.949-43.175-47.263-47.476
				c-22.188-3.922-38.548,7.527-52.987,17.627c-11.374,7.956-22.103,15.472-33.74,13.805l0.143-0.99
				c11.228,1.611,21.33-5.454,33.024-13.634c14.6-10.212,31.148-21.787,53.734-17.792c24.794,4.386,35.535,24.593,47.973,47.991
				c17.36,32.66,37.036,69.678,102.124,72.224c53.641,2.318,86.133-24.531,117.548-50.484
				c27.546-22.756,53.577-44.236,91.338-43.124c54.971,1.639,74.296,37.586,94.756,75.645c11.41,21.224,23.209,43.17,41.769,60.385
				c20.983,19.464,47.911,29.936,82.32,32.015L634.886,303.539z"/>
			<path style="fill:#4CE94F;" d="M633.942,304.677c-34.824-2.094-62.048-12.782-83.229-32.676
				c-18.693-17.558-30.473-39.861-41.863-61.431c-20.065-37.993-39.018-73.878-92.765-75.603
				c-37.604-1.212-63.607,20.481-91.136,43.441c-30.274,25.251-61.545,51.327-111.561,51.329c-2.022,0-4.071-0.042-6.157-0.129
				c-65.682-2.484-85.522-40.295-103.028-73.656c-12.301-23.442-22.924-43.688-47.161-47.89
				c-22.156-3.843-38.523,7.715-52.965,17.912c-11.393,8.044-22.155,15.642-33.795,14.003l0.139-0.99
				c11.257,1.588,21.366-5.559,33.079-13.83c14.601-10.309,31.148-21.993,53.714-18.081c24.722,4.287,35.451,24.734,47.875,48.411
				c17.379,33.12,37.077,70.659,102.182,73.121c53.265,2.218,85.686-24.817,117.038-50.968
				c27.681-23.086,53.879-44.882,91.808-43.673c54.329,1.743,73.413,37.878,93.617,76.134c11.353,21.497,23.093,43.727,41.664,61.17
				c21.003,19.727,48.022,30.327,82.604,32.406L633.942,304.677z"/>
			<path style="fill:#4DEA4F;" d="M633,305.814c-34.999-2.095-62.317-12.913-83.517-33.075
				c-18.705-17.79-30.424-40.379-41.757-62.224c-19.811-38.185-38.522-74.252-91.628-76.077c-37.781-1.31-63.937,20.7-91.599,43.991
				c-31.438,26.47-63.947,53.829-117.21,51.685c-65.705-2.398-85.567-40.735-103.091-74.558
				C91.912,131.84,81.3,111.358,57.141,107.253c-22.118-3.756-38.498,7.905-52.94,18.197c-11.413,8.132-22.198,15.815-33.852,14.202
				l0.137-0.99c11.273,1.559,21.401-5.664,33.134-14.026c14.601-10.404,31.145-22.198,53.689-18.369
				c24.65,4.188,35.368,24.875,47.778,48.829c17.398,33.58,37.117,71.641,102.242,74.018c52.874,2.16,85.236-25.103,116.526-51.449
				c27.814-23.418,54.061-45.536,92.278-44.226c53.688,1.845,72.531,38.164,92.48,76.616c11.295,21.771,22.975,44.284,41.559,61.959
				c21.021,19.992,48.134,30.722,82.888,32.802L633,305.814z"/>
			<path style="fill:#4EEA4F;" d="M632.058,306.953c-35.175-2.095-62.588-13.046-83.806-33.479
				c-18.716-18.024-30.373-40.898-41.646-63.02c-19.557-38.375-38.028-74.621-90.494-76.544
				c-38.022-1.385-64.302,20.905-92.107,44.514c-31.361,26.627-63.771,54.155-116.655,52.196
				c-65.711-2.445-85.597-41.26-103.141-75.507c-12.277-23.964-22.881-44.661-46.97-48.669
				c-22.112-3.679-38.475,8.095-52.917,18.481c-11.43,8.221-22.227,15.984-33.908,14.401l0.135-0.991
				c11.289,1.532,21.437-5.77,33.189-14.222c14.602-10.5,31.156-22.402,53.665-18.655c24.586,4.09,35.295,24.995,47.695,49.199
				c17.42,34.002,37.163,72.541,102.288,74.963c52.495,1.96,84.755-25.454,115.971-51.958c27.958-23.738,54.345-46.161,92.792-44.75
				c53.053,1.945,71.654,38.445,91.349,77.089c11.235,22.048,22.854,44.846,41.448,62.753
				c21.039,20.262,48.245,31.122,83.171,33.202L632.058,306.953z"/>
			<path style="fill:#4FEB4F;" d="M631.115,308.091c-35.351-2.096-62.858-13.18-84.095-33.888
				c-18.726-18.26-30.32-41.422-41.533-63.821c-19.302-38.56-37.534-74.981-89.362-77.001
				c-38.269-1.472-64.634,21.126-92.572,45.069c-30.283,25.953-61.573,52.762-111.115,52.765c-1.659,0-3.33-0.03-5.031-0.091
				c-65.736-2.36-85.643-41.703-103.206-76.414c-12.263-24.236-22.854-45.167-46.863-49.077
				c-22.091-3.597-38.452,8.283-52.895,18.765c-11.448,8.308-22.257,16.162-33.964,14.601l0.131-0.991
				c11.321,1.508,21.474-5.875,33.246-14.419c14.6-10.596,31.151-22.605,53.642-18.943c24.513,3.992,35.21,25.133,47.596,49.613
				c17.438,34.464,37.203,73.526,102.349,75.865c52.095,1.88,84.31-25.735,115.461-52.433
				c28.091-24.075,54.609-46.811,93.262-45.309c52.419,2.042,70.779,38.72,90.218,77.552c11.176,22.326,22.731,45.412,41.337,63.554
				c21.057,20.532,48.355,31.524,83.455,33.605L631.115,308.091z"/>
			<path style="fill:#50EB50;" d="M630.172,309.229c-35.527-2.096-63.129-13.315-84.382-34.299
				c-18.735-18.498-30.266-41.949-41.417-64.63c-19.049-38.742-37.04-75.335-88.235-77.449
				c-38.46-1.587-64.964,21.347-93.035,45.628c-31.232,27.016-63.541,54.955-115.639,53.149
				c-65.762-2.275-85.688-42.145-103.271-77.32c-12.249-24.507-22.827-45.673-46.76-49.486
				c-22.054-3.514-38.427,8.473-52.869,19.049c-11.468,8.397-22.296,16.335-34.021,14.8l0.129-0.991
				c11.319,1.472,21.508-5.981,33.301-14.616c14.601-10.692,31.146-22.811,53.618-19.229c24.438,3.894,35.124,25.272,47.496,50.026
				c17.457,34.926,37.243,74.513,102.411,76.768c51.702,1.799,83.862-26.016,114.949-52.905
				c28.225-24.415,54.865-47.479,93.73-45.871c51.789,2.138,69.908,38.991,89.092,78.007c11.114,22.604,22.607,45.979,41.222,64.358
				c21.073,20.807,48.464,31.932,83.738,34.013L630.172,309.229z"/>
			<path style="fill:#51EC50;" d="M629.229,310.367c-35.704-2.096-63.4-13.451-84.67-34.714
				c-18.744-18.737-30.21-42.48-41.298-65.442c-18.795-38.92-36.547-75.682-87.11-77.888c-38.683-1.687-65.297,21.569-93.498,46.189
				c-30.253,26.41-61.514,53.693-110.634,53.696c-1.486,0-2.979-0.025-4.498-0.075c-65.788-2.191-85.736-42.588-103.336-78.229
				c-12.234-24.778-22.802-46.176-46.653-49.892c-22.021-3.432-38.403,8.661-52.847,19.332c-11.486,8.485-22.345,16.496-34.077,15
				l0.127-0.992c11.337,1.449,21.544-6.086,33.356-14.813c14.6-10.787,31.147-23.012,53.595-19.516
				c24.364,3.795,35.037,25.41,47.396,50.437c17.476,35.39,37.282,75.501,102.473,77.672c51.391,1.717,83.42-26.293,114.44-53.375
				c28.356-24.756,55.144-48.152,94.199-46.435c51.161,2.231,69.039,39.255,87.968,78.452c11.052,22.886,22.479,46.552,41.104,65.17
				c21.089,21.082,48.572,32.342,84.021,34.423L629.229,310.367z"/>
			<path style="fill:#52EC50;" d="M628.286,311.505c-35.882-2.097-63.672-13.588-84.957-35.132
				c-18.752-18.98-30.151-43.017-41.176-66.262c-18.541-39.095-36.054-76.021-85.988-78.317
				c-38.857-1.788-65.628,21.792-93.962,46.754c-30.235,26.638-61.477,54.157-110.385,54.159c-1.4,0-2.811-0.022-4.239-0.068
				c-65.816-2.106-85.784-43.032-103.401-79.14c-12.221-25.047-22.775-46.678-46.548-50.297
				c-22.012-3.349-38.379,8.851-52.822,19.615c-11.505,8.574-22.367,16.676-34.135,15.201l0.125-0.992
				c11.35,1.417,21.581-6.193,33.412-15.01c14.6-10.882,31.145-23.218,53.57-19.802c24.291,3.697,34.952,25.547,47.296,50.847
				c17.493,35.854,37.321,76.493,102.534,78.579c50.97,1.649,82.977-26.569,113.932-53.841c28.489-25.1,55.408-48.799,94.669-47.003
				c50.535,2.323,68.173,39.514,86.846,78.888c10.988,23.169,22.351,47.128,40.983,65.986c21.104,21.36,48.681,32.756,84.305,34.837
				L628.286,311.505z"/>
			<path style="fill:#53ED50;" d="M627.344,312.644c-36.06-2.097-63.944-13.728-85.245-35.556
				c-18.76-19.224-30.092-43.555-41.051-67.085c-18.287-39.266-35.562-76.354-84.871-78.737
				c-39.049-1.893-65.957,22.015-94.424,47.322c-30.216,26.863-61.436,54.616-110.125,54.618c-1.318,0-2.646-0.021-3.991-0.062
				c-65.844-2.021-85.833-43.476-103.469-80.052c-12.206-25.315-22.748-47.178-46.439-50.7c-21.99-3.271-38.356,9.04-52.8,19.898
				c-11.523,8.664-22.406,16.849-34.189,15.401l0.121-0.992c11.402,1.397,21.618-6.3,33.468-15.208
				c14.6-10.976,31.15-23.414,53.547-20.088c24.216,3.6,34.864,25.684,47.194,51.255c17.512,36.32,37.36,77.485,102.599,79.486
				c50.551,1.556,82.533-26.844,113.421-54.304c28.623-25.447,55.655-49.476,95.137-47.574
				c49.913,2.413,67.311,39.767,85.729,79.314c10.923,23.454,22.219,47.707,40.859,66.809
				c21.119,21.642,48.788,33.174,84.588,35.256L627.344,312.644z"/>
			<path style="fill:#54ED50;" d="M626.4,313.781c-36.238-2.097-64.217-13.867-85.532-35.982
				c-18.767-19.47-30.03-44.097-40.923-67.914c-18.034-39.433-35.068-76.679-83.755-79.148
				c-39.287-2.005-66.29,22.239-94.887,47.894c-30.193,27.086-61.396,55.071-109.86,55.074c-1.241,0-2.485-0.018-3.749-0.055
				c-29.362-0.862-52.254-9.884-69.983-27.583c-15.476-15.448-25.08-35.601-33.553-53.382
				c-12.192-25.583-22.721-47.677-46.333-51.102c-21.961-3.187-38.331,9.228-52.774,20.18
				c-11.541,8.752-22.438,17.018-34.247,15.603l0.119-0.993c11.403,1.367,21.653-6.405,33.523-15.406
				c14.6-11.07,31.151-23.622,53.522-20.373c24.142,3.501,34.776,25.819,47.092,51.661c17.53,36.786,37.4,78.48,102.663,80.395
				c50.205,1.504,82.092-27.115,112.912-54.764c28.754-25.796,55.905-50.152,95.605-48.148c49.293,2.5,66.449,40.015,84.614,79.731
				c10.857,23.741,22.084,48.29,40.732,67.637c21.133,21.926,48.895,33.596,84.871,35.678L626.4,313.781z"/>
			<path style="fill:#55EE51;" d="M625.459,314.919c-36.419-2.098-64.491-14.008-85.822-36.412
				c-18.771-19.719-29.966-44.645-40.79-68.75c-17.781-39.596-34.577-76.996-82.643-79.55
				c-39.467-2.084-66.589,22.478-95.305,48.495c-30.909,28.004-62.922,56.967-113.148,55.452
				c-29.38-0.766-52.291-9.846-70.039-27.76c-15.489-15.634-25.098-36.056-33.576-54.075c-12.175-25.874-22.688-48.22-46.213-51.547
				c-21.936-3.101-38.307,9.417-52.75,20.462c-11.561,8.841-22.489,17.19-34.304,15.804l0.117-0.993
				c11.436,1.344,21.69-6.513,33.579-15.604c14.6-11.166,31.14-23.821,53.498-20.659c24.059,3.403,34.68,25.976,46.978,52.112
				c17.546,37.292,37.435,79.56,102.737,81.26c49.885,1.499,81.688-27.323,112.449-55.193
				c28.875-26.161,56.142-50.857,96.029-48.752c48.675,2.586,65.592,40.257,83.502,80.139c10.79,24.028,21.948,48.875,40.603,68.469
				c21.146,22.213,49.001,34.022,85.154,36.104L625.459,314.919z"/>
			<path style="fill:#56EF51;" d="M624.516,316.058c-36.599-2.098-64.765-14.15-86.108-36.848
				c-18.777-19.968-29.899-45.194-40.656-69.589c-17.528-39.756-34.085-77.307-81.534-79.943
				c-39.693-2.213-66.921,22.703-95.768,49.072c-30.109,27.521-61.222,55.958-109.128,55.96c-1.162,0-2.33-0.018-3.513-0.051
				c-29.392-0.728-52.317-9.895-70.085-28.027c-15.501-15.82-25.116-36.488-33.599-54.724
				c-12.159-26.139-22.661-48.714-46.104-51.946c-21.909-3.017-38.282,9.604-52.728,20.745
				c-11.578,8.93-22.515,17.371-34.359,16.005l0.113-0.993c11.454,1.313,22.223-7.001,33.636-15.804
				c14.599-11.259,31.146-24.022,53.475-20.943c23.982,3.306,34.591,26.11,46.873,52.514c17.565,37.76,37.474,80.558,102.805,82.173
				c49.485,1.421,81.246-27.592,111.938-55.647c29.007-26.515,56.404-51.554,96.497-49.332
				c48.062,2.669,64.738,40.493,82.395,80.537c10.723,24.318,21.81,49.465,40.47,69.309c21.159,22.501,49.106,34.451,85.437,36.534
				L624.516,316.058z"/>
			<path style="fill:#57EF51;" d="M623.573,317.195c-82.318-4.695-106.011-59.431-126.915-107.722
				c-17.276-39.911-33.594-77.609-80.429-80.324c-39.871-2.31-67.252,22.928-96.23,49.651
				c-30.084,27.742-61.172,56.407-108.851,56.409c-1.087,0-2.179-0.015-3.282-0.045c-29.404-0.688-52.345-9.944-70.131-28.295
				c-15.514-16.006-25.134-36.921-33.622-55.374c-12.145-26.404-22.633-49.208-45.994-52.343
				c-21.895-2.938-38.259,9.793-52.703,21.026c-11.598,9.019-22.552,17.534-34.417,16.207l0.111-0.994
				c11.461,1.289,22.26-7.111,33.692-16.002c14.599-11.354,31.144-24.219,53.449-21.228c23.907,3.209,34.502,26.244,46.771,52.916
				c17.583,38.228,37.513,81.556,102.869,83.087c49.135,1.352,80.807-27.86,111.43-56.099c29.139-26.87,56.66-52.244,96.967-49.914
				c47.449,2.751,63.886,40.723,81.288,80.925c10.653,24.61,21.668,50.058,40.334,70.152c21.171,22.794,49.211,34.886,85.72,36.969
				L623.573,317.195z"/>
			<path style="fill:#58F051;" d="M622.63,318.334c-82.732-4.697-106.282-60.119-127.061-109.017
				c-17.024-40.063-33.104-77.903-79.326-80.697c-40.086-2.421-67.585,23.155-96.693,50.234
				c-30.057,27.959-61.122,56.851-108.568,56.854c-1.015,0.001-2.028-0.013-3.058-0.039c-29.417-0.65-52.373-9.994-70.178-28.563
				c-15.526-16.193-25.151-37.354-33.644-56.025c-12.13-26.667-22.605-49.698-45.885-52.738
				c-21.874-2.854-38.235,9.981-52.679,21.308c-11.616,9.108-22.573,17.711-34.475,16.409l0.109-0.994
				c11.472,1.262,22.297-7.222,33.748-16.202c14.599-11.447,31.147-24.422,53.425-21.512c23.831,3.112,34.413,26.377,46.666,53.315
				c17.601,38.697,37.551,82.557,102.935,84.003c48.77,1.271,80.369-28.126,110.921-56.547c29.271-27.229,56.922-52.95,97.436-50.5
				c46.84,2.831,63.037,40.948,80.186,81.304c10.582,24.902,21.524,50.653,40.194,71.002c21.183,23.088,49.314,35.324,86.003,37.407
				L622.63,318.334z"/>
			<path style="fill:#59F052;" d="M621.688,319.472c-83.148-4.698-106.555-60.813-127.205-110.321
				c-16.771-40.209-32.613-78.189-78.227-81.059c-40.315-2.53-67.916,23.381-97.157,50.819
				c-30.626,28.738-62.257,58.469-111.117,57.263c-29.43-0.612-52.401-10.044-70.226-28.833
				c-15.538-16.38-25.169-37.789-33.666-56.678c-12.115-26.93-22.577-50.187-45.774-53.131
				c-21.842-2.775-38.211,10.169-52.654,21.588c-11.637,9.199-22.637,17.888-34.532,16.612l0.107-0.994
				c11.492,1.23,22.334-7.333,33.805-16.402C19.638,106.795,36.187,93.711,58.44,96.54c23.754,3.015,34.323,26.509,46.562,53.713
				c17.619,39.167,37.59,83.56,103.003,84.921c48.435,1.215,79.931-28.392,110.41-56.992c29.402-27.59,57.177-53.651,97.903-51.088
				c46.234,2.908,62.192,41.167,79.087,81.672c10.511,25.198,21.379,51.253,40.053,71.858c21.193,23.386,49.418,35.766,86.286,37.85
				L621.688,319.472z"/>
			<path style="fill:#5AF152;" d="M620.744,320.609c-83.565-4.699-106.823-61.511-127.344-111.635
				c-8.472-20.692-16.473-40.236-28.046-55.089c-12.947-16.615-28.544-24.979-49.085-26.322
				c-40.509-2.653-68.249,23.608-97.62,51.408c-30.555,28.92-62.118,58.851-110.61,57.708c-29.443-0.574-52.43-10.094-70.272-29.103
				c-15.552-16.568-25.188-38.224-33.689-57.331c-12.1-27.191-22.549-50.674-45.665-53.524C36.59,94.039,20.227,107.08,5.783,118.59
				c-11.654,9.289-22.665,18.063-34.589,16.814l0.104-0.994c11.535,1.207,22.372-7.445,33.861-16.602
				c14.598-11.633,31.127-24.826,53.376-22.079c23.677,2.918,34.232,26.641,46.455,54.109c8.47,19.035,18.07,40.608,33.505,57.053
				c17.649,18.802,40.404,28.218,69.565,28.787c48.046,1.129,79.494-28.654,109.901-57.435
				c29.534-27.954,57.432-54.357,98.372-51.679c45.631,2.984,61.35,41.38,77.991,82.031
				c20.408,49.851,43.54,106.352,126.476,111.016L620.744,320.609z"/>
			<path style="fill:#5BF152;" d="M619.802,321.748c-83.985-4.7-107.094-62.215-127.481-112.959
				c-8.347-20.774-16.23-40.396-27.637-55.304c-12.755-16.669-28.136-25.074-48.402-26.451
				c-40.729-2.768-68.581,23.836-98.082,51.999c-29.967,28.607-60.945,58.173-107.686,58.177c-0.804,0-1.604-0.009-2.417-0.026
				c-29.456-0.536-52.459-10.145-70.32-29.374c-15.564-16.755-25.206-38.659-33.713-57.984
				c-12.084-27.451-22.52-51.16-45.553-53.914c-21.788-2.608-38.162,10.545-52.605,22.149
				c-11.672,9.378-22.693,18.232-34.646,17.018l0.102-0.995c11.546,1.187,22.409-7.556,33.918-16.802
				c14.597-11.727,31.129-25.019,53.351-22.362c23.6,2.823,34.142,26.772,46.35,54.504c8.475,19.253,18.08,41.075,33.529,57.706
				c17.667,19.02,40.436,28.523,69.607,29.055c47.723,1.047,79.057-28.914,109.393-57.874c29.665-28.32,57.667-55.074,98.841-52.274
				c45.029,3.059,60.51,41.588,76.898,82.38c20.277,50.468,43.259,107.669,126.61,112.334L619.802,321.748z"/>
			<path style="fill:#5CF252;" d="M618.859,322.886c-84.408-4.701-107.362-62.924-127.615-114.294
				c-8.222-20.854-15.988-40.552-27.229-55.512c-12.563-16.722-27.728-25.167-47.721-26.575
				c-40.921-2.884-68.915,24.065-98.547,52.594c-29.935,28.822-60.877,58.61-107.38,58.612c-0.734,0-1.47-0.008-2.213-0.022
				c-29.471-0.498-52.489-10.195-70.37-29.645c-15.576-16.944-25.224-39.095-33.735-58.639
				c-12.068-27.711-22.491-51.644-45.441-54.304c-21.757-2.522-38.137,10.733-52.58,22.429
				c-11.691,9.469-22.729,18.406-34.704,17.221l0.1-0.995c11.554,1.154,22.446-7.667,33.976-17.003
				c14.596-11.82,31.143-25.214,53.324-22.645c23.522,2.727,34.052,26.903,46.243,54.897c8.48,19.472,18.092,41.542,33.555,58.362
				c17.686,19.237,40.469,28.828,69.652,29.321c47.355,0.956,78.62-29.174,108.881-58.31c29.797-28.689,57.931-55.788,99.311-52.871
				c44.432,3.13,59.673,41.789,75.809,82.718c20.143,51.09,42.973,108.996,126.74,113.662L618.859,322.886z"/>
			<path style="fill:#5DF252;" d="M617.917,324.023c-84.832-4.701-107.631-63.639-127.746-115.638
				c-16.451-42.527-30.658-79.255-73.862-82.41c-41.112-2.992-69.247,24.293-99.01,53.193
				c-29.901,29.034-60.811,59.042-107.071,59.044c-0.67,0-1.339-0.006-2.016-0.019c-29.483-0.46-52.519-10.246-70.418-29.918
				c-15.589-17.132-25.241-39.531-33.758-59.294c-12.053-27.97-22.462-52.125-45.329-54.691C36.964,91.846,20.594,105.212,6.15,117
				c-11.709,9.558-22.757,18.596-34.761,17.425l0.096-0.995c11.595,1.121,22.487-7.78,34.033-17.204
				c14.596-11.913,31.141-25.41,53.3-22.928c23.444,2.631,33.96,27.033,46.137,55.289c8.485,19.691,18.103,42.009,33.579,59.017
				c17.703,19.456,40.501,29.135,69.695,29.591c46.955,0.873,78.185-29.432,108.372-58.744
				c29.928-29.06,58.203-56.516,99.779-53.472c43.836,3.201,58.839,41.985,74.723,83.046
				c20.006,51.718,42.682,110.335,126.868,115.001L617.917,324.023z"/>
			<path style="fill:#5EF353;" d="M616.974,325.162c-85.257-4.703-107.897-64.359-127.872-116.993
				c-16.189-42.659-30.172-79.5-72.781-82.722c-41.33-3.114-69.579,24.522-99.472,53.793
				c-29.866,29.246-60.74,59.473-106.757,59.475c-0.606,0-1.211-0.005-1.822-0.016c-29.505-0.422-52.56-10.295-70.479-30.182
				c-15.604-17.317-25.263-39.961-33.784-59.94c-12.035-28.214-22.43-52.581-45.202-55.096
				c-21.707-2.316-38.077,11.133-52.516,22.999c-11.734,9.643-22.819,18.749-34.833,17.619l0.094-0.996
				c11.62,1.101,22.535-7.888,34.104-17.396c14.589-11.989,31.126-25.575,53.258-23.22c23.355,2.579,33.856,27.195,46.014,55.698
				c8.492,19.907,18.116,42.47,33.608,59.663c17.724,19.669,40.539,29.434,69.752,29.852c46.643,0.813,77.751-29.688,107.863-59.174
				c30.06-29.435,58.455-57.238,100.248-54.076c43.243,3.27,58.008,42.175,73.64,83.365
				c19.867,52.349,42.385,111.683,126.992,116.35L616.974,325.162z"/>
			<path style="fill:#5FF453;" d="M616.031,326.3c-85.685-4.703-108.163-65.085-127.995-118.357
				c-15.929-42.787-29.686-79.738-71.702-83.024c-41.547-3.248-69.914,24.751-99.937,54.397
				c-29.829,29.456-60.663,59.902-106.436,59.902c-0.542,0-1.087-0.004-1.634-0.013c-29.52-0.384-52.59-10.346-70.528-30.456
				c-15.616-17.506-25.281-40.399-33.808-60.598c-12.02-28.472-22.399-53.061-45.09-55.479c-21.697-2.24-38.054,11.32-52.491,23.277
				c-11.754,9.735-22.845,18.918-34.892,17.824l0.092-0.996c11.622,1.068,22.572-8,34.162-17.598
				c14.588-12.082,31.124-25.771,53.232-23.501c23.278,2.481,33.765,27.322,45.907,56.085c8.497,20.127,18.127,42.939,33.633,60.322
				c17.741,19.889,40.572,29.741,69.797,30.121c0.539,0.009,1.077,0.013,1.612,0.013c45.37,0,76.054-30.3,105.74-59.613
				c30.188-29.811,58.699-57.975,100.717-54.683c42.653,3.336,57.181,42.359,72.561,83.672
				c19.726,52.986,42.083,113.041,127.113,117.709L616.031,326.3z"/>
			<path style="fill:#60F453;" d="M615.088,327.438c-86.113-4.704-108.428-65.816-128.115-119.734
				c-15.667-42.908-29.198-79.965-70.625-83.315c-41.753-3.38-70.248,24.98-100.401,55.004
				c-29.79,29.663-60.588,60.325-106.11,60.327c-0.483,0-0.964-0.004-1.45-0.011c-29.534-0.346-52.62-10.397-70.577-30.73
				c-15.629-17.696-25.299-40.838-33.83-61.257C91.975,118.994,81.607,94.183,59,91.861c-21.678-2.158-38.03,11.505-52.468,23.555
				c-11.771,9.825-22.876,19.114-34.947,18.029l0.09-0.996c11.651,1.042,22.609-8.112,34.217-17.801
				c14.589-12.176,31.129-25.976,53.209-23.782c23.2,2.383,33.674,27.448,45.801,56.47c8.501,20.347,18.138,43.409,33.656,60.981
				c17.76,20.108,40.604,30.05,69.841,30.392c45.932,0.656,76.882-30.193,106.843-60.024c30.321-30.19,58.967-58.702,101.187-55.292
				c19.233,1.555,33.775,10.278,45.766,27.452c10.654,15.26,17.972,35.3,25.719,56.517c19.581,53.628,41.775,114.41,127.23,119.079
				L615.088,327.438z"/>
			<path style="fill:#61F553;" d="M614.146,328.576c-86.546-4.705-108.692-66.553-128.232-121.12
				c-15.407-43.026-28.714-80.185-69.554-83.596c-41.967-3.504-70.58,25.211-100.863,55.614
				c-29.751,29.869-60.51,60.746-105.781,60.748c-0.425,0-0.846-0.003-1.272-0.008c-29.547-0.308-52.649-10.449-70.625-31.006
				c-15.642-17.886-25.316-41.278-33.854-61.917C91.977,118.308,81.623,93.276,59.098,91.05
				c-21.659-2.068-38.006,11.69-52.442,23.832c-11.792,9.917-22.923,19.284-35.005,18.235l0.086-0.996
				c11.657,1.016,22.646-8.224,34.275-18.004c14.588-12.27,31.118-26.18,53.183-24.062c23.124,2.285,33.583,27.573,45.694,56.854
				c8.507,20.567,18.148,43.878,33.681,61.641c17.778,20.33,40.638,30.36,69.885,30.664c0.417,0.005,0.84,0.008,1.255,0.008
				c44.868,0,75.47-30.727,105.079-60.454c30.451-30.573,59.221-59.46,101.655-55.904c18.968,1.584,33.299,10.342,45.101,27.561
				c10.488,15.303,17.688,35.409,25.311,56.695c19.435,54.274,41.463,115.789,127.346,120.459L614.146,328.576z"/>
			<path style="fill:#62F553;" d="M613.202,329.714c-86.979-4.706-108.956-67.295-128.345-122.517
				c-15.147-43.139-28.229-80.396-68.484-83.866c-42.176-3.625-70.915,25.441-101.327,56.227
				c-29.711,30.075-60.426,61.166-105.446,61.167c-0.366,0-0.73-0.002-1.099-0.006c-29.563-0.269-52.681-10.501-70.676-31.281
				c-15.653-18.078-25.334-41.72-33.875-62.579C91.978,117.621,81.639,92.37,59.196,90.24
				c-21.626-1.988-37.981,11.875-52.419,24.109c-11.81,10.008-22.96,19.458-35.063,18.441l0.084-0.996
				c11.687,0.987,22.686-8.338,34.332-18.208c14.586-12.361,31.113-26.368,53.158-24.342c23.046,2.187,33.491,27.697,45.586,57.236
				c8.512,20.788,18.159,44.349,33.706,62.302c17.796,20.551,40.671,30.67,69.931,30.937c45.2,0.518,76.018-30.692,105.822-60.864
				c30.583-30.958,59.473-60.201,102.125-56.52c40.899,3.526,54.08,41.065,69.342,84.531
				c19.285,54.926,41.145,117.18,127.456,121.85L613.202,329.714z"/>
			<path style="fill:#63F654;" d="M612.26,330.853c-87.415-4.707-109.218-68.044-128.455-123.925
				c-14.888-43.248-27.744-80.597-67.418-84.125c-42.409-3.776-71.25,25.671-101.792,56.843
				c-29.667,30.278-60.345,61.58-105.107,61.583c-0.312,0-0.616-0.002-0.929-0.005c-29.577-0.23-52.712-10.554-70.726-31.558
				c-15.666-18.269-25.353-42.161-33.898-63.241C91.979,116.934,81.653,91.464,59.294,89.43
				c-21.602-1.911-37.957,12.06-52.395,24.386c-11.828,10.1-22.995,19.624-35.119,18.648l0.082-0.997
				c11.683,0.962,22.721-8.451,34.388-18.412c14.586-12.454,31.126-26.566,53.133-24.622c22.968,2.089,33.4,27.821,45.479,57.616
				c8.518,21.009,18.171,44.82,33.731,62.965c17.813,20.772,40.703,30.98,69.975,31.209c0.304,0.003,0.613,0.005,0.915,0.005
				c44.354,0,74.872-31.15,104.397-61.283c30.714-31.345,59.727-60.959,102.595-57.139c40.32,3.586,53.275,41.22,68.276,84.796
				c19.134,55.582,40.82,118.581,127.563,123.252L612.26,330.853z"/>
			<path style="fill:#64F654;" d="M611.317,331.99c-87.854-4.707-109.48-68.797-128.562-125.343
				c-14.628-43.351-27.262-80.79-66.357-84.374c-42.611-3.91-71.583,25.903-102.255,57.461
				c-29.625,30.483-60.253,61.997-104.764,61.997c-0.255,0-0.509-0.001-0.764-0.003c-29.593-0.192-52.744-10.605-70.776-31.836
				c-15.679-18.46-25.37-42.603-33.92-63.903C91.98,116.245,81.669,90.557,59.393,88.62c-21.59-1.832-37.936,12.245-52.372,24.663
				c-11.847,10.19-23.042,19.81-35.175,18.855l0.078-0.997c11.74,0.931,22.761-8.566,34.444-18.616
				c14.587-12.547,31.121-26.778,53.109-24.901c22.89,1.991,33.308,27.943,45.37,57.994c8.521,21.229,18.181,45.292,33.755,63.628
				c17.832,20.995,40.736,31.293,70.021,31.483c44.482,0.385,75.156-31.185,104.804-61.69
				c30.842-31.736,59.957-61.716,103.063-57.761c39.743,3.644,52.474,41.369,67.214,85.051
				c18.979,56.244,40.49,119.992,127.666,124.664L611.317,331.99z"/>
			<path style="fill:#65F754;" d="M610.375,333.129c-88.295-4.708-109.741-69.558-128.664-126.772
				c-14.369-43.449-26.779-80.973-65.299-84.612c-42.83-4.043-71.918,26.133-102.72,58.084
				c-29.58,30.683-60.163,62.407-104.415,62.407c-0.201,0-0.401-0.001-0.603-0.002c-29.608-0.153-52.776-10.658-70.827-32.114
				c-15.692-18.651-25.389-43.045-33.943-64.567C91.98,115.557,81.684,89.651,59.49,87.809
				c-21.558-1.749-37.91,12.429-52.347,24.939c-11.866,10.283-23.067,19.994-35.233,19.063l0.076-0.997
				c11.731,0.896,22.797-8.678,34.502-18.821c14.586-12.639,31.128-26.965,53.083-25.18c22.813,1.893,33.216,28.065,45.262,58.371
				c8.527,21.451,18.192,45.765,33.78,64.292c17.851,21.218,40.77,31.605,70.067,31.758c0.196,0.001,0.397,0.002,0.594,0.002
				c43.832,0,74.262-31.566,103.698-62.101c30.974-32.129,60.244-62.48,103.533-58.385c39.17,3.7,51.675,41.511,66.154,85.293
				c18.822,56.911,40.155,121.416,127.768,126.089L610.375,333.129z"/>
			<path style="fill:#66F754;" d="M609.432,334.267c-88.737-4.709-110.001-70.322-128.762-128.213
				c-14.111-43.542-26.299-81.147-64.246-84.838c-43.015-4.188-72.251,26.364-103.183,58.709
				c-29.533,30.881-60.075,62.811-104.063,62.815c-0.151,0-0.295,0-0.445-0.001c-29.624-0.115-52.808-10.711-70.878-32.393
				c-15.704-18.845-25.406-43.489-33.966-65.232C91.981,114.867,81.698,88.745,59.588,87c-21.521-1.679-37.886,12.612-52.322,25.214
				c-11.885,10.375-23.121,20.173-35.29,19.27l0.074-0.997c11.754,0.861,22.834-8.792,34.558-19.026
				c14.585-12.732,31.105-27.167,53.059-25.458c22.733,1.795,33.123,28.187,45.153,58.745c8.531,21.673,18.202,46.237,33.804,64.958
				c17.869,21.441,40.803,31.919,70.113,32.033c0.145,0.001,0.295,0.001,0.438,0.001c43.571,0,73.953-31.772,103.344-62.506
				c31.104-32.526,60.485-63.248,104.003-59.013c38.599,3.755,50.88,41.648,65.1,85.526
				c18.661,57.583,39.813,122.85,127.863,127.522L609.432,334.267z"/>
			<path style="fill:#67F855;" d="M608.489,335.404c-89.169-4.709-110.247-71.111-128.844-129.697
				c-13.854-43.644-25.817-81.336-63.207-85.021c-43.265-4.398-72.603,26.55-103.671,59.315
				c-29.481,31.092-59.969,63.241-103.686,63.243c-0.099,0-0.193-0.001-0.293-0.001c-66.551-0.173-87.823-54.731-104.916-98.57
				c-11.891-30.497-22.16-56.834-44.187-58.484c-21.52-1.599-37.864,12.796-52.299,25.49
				c-11.905,10.467-23.158,20.351-35.348,19.478l0.072-0.997c11.778,0.834,22.872-8.907,34.614-19.232
				c14.585-12.824,31.109-27.36,53.034-25.736c22.655,1.697,33.03,28.307,45.044,59.118c8.537,21.895,18.213,46.711,33.828,65.624
				c17.887,21.665,40.836,32.233,70.159,32.31c0.096,0,0.194,0.001,0.289,0.001c43.292,0,73.623-31.99,102.961-62.931
				c31.242-32.949,60.729-64.079,104.496-59.623c38.043,3.75,50.101,41.733,64.061,85.714
				c18.499,58.276,39.465,124.328,127.943,129.001L608.489,335.404z"/>
			<path style="fill:#68F855;" d="M607.546,336.543c-39.969-2.101-69.825-16.96-91.277-45.428
				c-18.742-24.872-28.361-55.804-37.663-85.716c-13.597-43.721-25.338-81.479-62.154-85.242
				c-43.455-4.513-72.929,26.803-104.125,59.958c-29.434,31.284-59.877,63.63-103.335,63.634c-0.05,0-0.093,0-0.144,0
				c-66.589-0.087-87.882-55.218-104.991-99.518c-11.874-30.746-22.129-57.298-44.072-58.853
				c-21.491-1.516-37.839,12.98-52.274,25.766c-11.923,10.559-23.21,20.534-35.403,19.687l0.068-0.998
				c11.829,0.811,22.91-9.022,34.672-19.438c14.582-12.916,31.091-27.556,53.008-26.015c22.577,1.6,32.938,28.427,44.936,59.49
				c8.542,22.117,18.224,47.185,33.853,66.291c17.905,21.89,40.87,32.549,70.207,32.587c0.044,0,0.097,0,0.142,0
				c43.034,0,73.314-32.188,102.606-63.319c31.371-33.34,61.012-64.832,104.956-60.268c37.473,3.83,49.305,41.881,63.007,85.939
				c18.332,58.952,39.11,125.77,128.038,130.443L607.546,336.543z"/>
			<path style="fill:#69F955;" d="M606.604,337.681c-40.167-2.101-70.12-17.128-91.57-45.942
				c-18.733-25.164-28.256-56.426-37.465-86.659c-13.34-43.792-24.859-81.611-61.105-85.451
				c-43.686-4.627-73.257,27.059-104.577,60.604c-29.388,31.476-59.776,64.022-102.98,64.022
				c-66.628,0-87.94-55.706-105.065-100.467c-11.857-30.993-22.098-57.759-43.957-59.218c-21.45-1.44-37.814,13.162-52.251,26.04
				c-11.941,10.651-23.223,20.708-35.461,19.895l0.066-0.998c11.828,0.803,22.949-9.135,34.729-19.644
				c14.583-13.008,31.116-27.75,52.983-26.291c22.498,1.502,32.845,28.545,44.825,59.859c8.547,22.339,18.234,47.66,33.877,66.959
				c17.924,22.114,40.904,32.864,70.254,32.864c42.77,0,73.007-32.386,102.249-63.705c31.495-33.732,61.237-65.602,105.414-60.915
				c36.904,3.91,48.514,42.023,61.956,86.154c18.164,59.632,38.752,127.22,128.132,131.895L606.604,337.681z"/>
		</g>
	</g>
</g>
</svg>
